<ttFont>
          <CharString index="0">
            -99 callgsubr
            -299 vlineto
            -18 -25 -38 -15 -27 hhcurveto
            -46 -16 24 44 hvcurveto
            362 -83 callgsubr
            -58 30 -57 97 58 69 29 33 37 vhcurveto
            -37 7 48 -20 45 hhcurveto
            37 25 5 12 47 hvcurveto
            return
          </CharString>
          <CharString index="1">
            -216 -87 -144 -173 -175 90 -145 213 216 84 145 175 173 -82 144 -218 hvcurveto
            155 -317 rmoveto
            -104 -17 -145 -134 -139 -23 139 110 101 19 146 133 139 22 -146 -101 vhcurveto
            return
          </CharString>
          <CharString index="2">
            rmoveto
            -177 -68 -115 -143 -138 70 -116 175 179 70 116 138 143 -68 115 -181 hvcurveto
            104 -256 rmoveto
            30 callsubr
            -85 -19 82 106 109 18 80 80 86 20 -80 -109 vhcurveto
            return
          </CharString>
          <CharString index="3">
            rmoveto
            45 -37 39 -45 -45 -41 -39 -45 -45 41 -35 45 45 37 35 45 vhcurveto
            return
          </CharString>
          <CharString index="4">
            rmoveto
            41 -34 32 -40 -41 -37 -32 -41 -42 37 -30 41 40 34 30 42 vhcurveto
            231 hmoveto
            41 -35 32 -38 -42 -35 -32 -41 -42 35 -30 42 38 35 30 42 vhcurveto
            return
          </CharString>
          <CharString index="5">
            -105 callsubr
            endchar
          </CharString>
          <CharString index="6">
            rmoveto
            23 25 -109 135 rlineto
            -85 hlineto
            -110 -135 26 -25 126 77 129 -77 rlineto
            return
          </CharString>
          <CharString index="7">
            rmoveto
            -99 60 -50 48 -21 vhcurveto
            92 -40 rlineto
            58 -26 28 -21 -48 vvcurveto
            -51 -45 -26 -69 -39 -36 9 6 -21 vhcurveto
            -16 87 rlineto
            -56 hlineto
            -15 -143 rlineto
            -21 55 74 -10 56 hhcurveto
            156 79 74 114 74 -32 54 -84 35 hvcurveto
            -91 38 rlineto
            -53 22 -35 27 49 vvcurveto
            62 52 18 59 21 39 -5 -6 17 vhcurveto
            22 -91 rlineto
            53 hlineto
            11 145 rlineto
            18 -56 -59 9 -60 hhcurveto
            -135 -78 -67 -116 hvcurveto
            return
          </CharString>
          <CharString index="8">
            rmoveto
            25 -98 rlineto
            56 hlineto
            11 153 rlineto
            16 -42 -78 13 -64 hhcurveto
            -238 -90 -144 -173 -174 82 -147 234 75 75 15 27 48 hvcurveto
            190 vlineto
            60 19 rlineto
            47 -279 52 callgsubr
            -150 vlineto
            -8 -26 -26 0 -18 hhcurveto
            -128 -39 117 132 108 33 138 155 37 32 -4 -9 21 hvcurveto
            return
          </CharString>
          <CharString index="9">
            rmoveto
            40 -70 callsubr
            -37 rlineto
            -50 vlineto
            78 -10 rlineto
            -335 vlineto
            -78 -25 rlineto
            -45 45 callsubr
            7 25 27 5 44 hhcurveto
            55 14 -8 -49 hvcurveto
            -294 vlineto
            70 callsubr
            274 -5 callsubr
            77 -59 27 -65 -63 -87 -28 -12 -26 vhcurveto
            return
          </CharString>
          <CharString index="10">
            rmoveto
            15 -4 24 -9 18 vhcurveto
            -84 -14 -6 -13 rlineto
            3 -13 2 -16 -12 vvcurveto
            -44 -23 -9 -33 vhcurveto
            return
          </CharString>
          <CharString index="11">
            rmoveto
            32 18 -6 -8 19 hvcurveto
            20 -74 rlineto
            56 hlineto
            14 126 rlineto
            20 -49 -59 9 -49 hhcurveto
            -135 -61 -63 -95 -74 34 -40 62 -21 hvcurveto
            109 -37 rlineto
            41 -14 14 -9 -30 vvcurveto
            -41 -35 -20 -63 -34 -21 6 6 -17 vhcurveto
            -21 84 rlineto
            -58 hlineto
            -12 -139 rlineto
            -16 48 70 -9 49 hhcurveto
            133 75 62 94 82 -34 38 -67 21 hvcurveto
            -4 callgsubr
            return
          </CharString>
          <CharString index="12">
            -70 callsubr
            -99 callgsubr
            return
          </CharString>
          <CharString index="13">
            rmoveto
            -55 callgsubr
            -383 vlineto
            -305 451 rlineto
            -206 -84 callgsubr
            238 -41 callsubr
            387 vlineto
            318 -466 112 10 rlineto
            546 -11 callsubr
            -243 vlineto
            return
          </CharString>
          <CharString index="14">
            294 vlineto
            -87 callgsubr
            return
          </CharString>
          <CharString index="15">
            -77 callsubr
            -205 558 -78 -13 rlineto
            return
          </CharString>
          <CharString index="16">
            rmoveto
            -78 20 rlineto
            -80 callsubr
            291 50 vlineto
            return
          </CharString>
          <CharString index="17">
            rmoveto
            -256 -373 22 -46 rlineto
            389 hlineto
            11 163 rlineto
            -50 hlineto
            -36 -92 rlineto
            -169 hlineto
            257 374 -23 47 rlineto
            -392 hlineto
            18 -162 rlineto
            47 hlineto
            25 89 rlineto
            157 hlineto
            return
          </CharString>
          <CharString index="18">
            rmoveto
            28 85 rlineto
            -92 callsubr
            return
          </CharString>
          <CharString index="19">
            rmoveto
            477 -11 callsubr
            -305 -45 vlineto
            85 -23 rlineto
            -68 callsubr
            return
          </CharString>
          <CharString index="20">
            -68 23 rlineto
            120 355 rmoveto
            80 -216 rlineto
            -153 hlineto
            73 216 rlineto
            return
          </CharString>
          <CharString index="21">
            rmoveto
            228 109 rlineto
            23 vlineto
            -99 34 -156 -131 27 -35 rlineto
            return
          </CharString>
          <CharString index="22">
            482 56 callgsubr
            -26 -93 rlineto
            -181 205 104 hlineto
            19 -69 rlineto
            53 191 -53 hlineto
            return
          </CharString>
          <CharString index="23">
            185 45 hlineto
            -64 23 -80 182 -2 26 -58 19 rlinecurve
            84 26 59 51 93 vvcurveto
            87 -65 62 -159 vhcurveto
            -283 -84 callgsubr
            293 45 vlineto
            51 callsubr
            33 14 -14 -254 91 hvcurveto
            -122 323 rmoveto
            -41 223 hlineto
            4 11 18 3 19 hhcurveto
            61 42 -33 -72 -74 -39 -51 -71 hvcurveto
            return
          </CharString>
          <CharString index="24">
            -107 callsubr
            -14 callsubr
            return
          </CharString>
          <CharString index="25">
            rmoveto
            -86 callgsubr
            -423 vlineto
            -33 -20 -40 -53 vhcurveto
            -45 hlineto
            -6 -47 rlineto
            -20 42 45 -9 23 hhcurveto
            71 78 54 170 hvcurveto
            446 -70 callsubr
            -39 rlineto
            endchar
          </CharString>
          <CharString index="26">
            732 rmoveto
            -36 -24 109 -142 rlineto
            86 hlineto
            109 142 -34 24 -118 -79 -116 79 rlineto
            return
          </CharString>
          <CharString index="27">
            432 -44 vlineto
            -169 2 callgsubr
            return
          </CharString>
          <CharString index="28">
            38 89 -37 49 hhcurveto
            34 28 46 58 24 hvcurveto
            return
          </CharString>
          <CharString index="29">
            103 22 65 70 hvcurveto
            -56 2 rlineto
            -27 -12 -34 -53 -50 -13 34 27 vhcurveto
            -59 -2 rlineto
            return
          </CharString>
          <CharString index="30">
            -77 callgsubr
            -71 24 return
          </CharString>
          <CharString index="31">
            -189 -545 -71 -25 rlineto
            -44 220 45 vlineto
            return
          </CharString>
          <CharString index="32">
            rmoveto
            -240 -40 hlineto
            50 -27 171 -399 rlineto
            -59 -23 -38 -60 -72 hhcurveto
            -65 hlineto
            -8 -46 rlineto
            -20 45 42 -9 31 hhcurveto
            90 52 76 126 46 hvcurveto
            return
          </CharString>
          <CharString index="33">
            rmoveto
            37 15 -20 -38 -44 -32 -49 -33 -34 hvcurveto
            -145 -152 16 -44 rlineto
            307 hlineto
            8 108 -61 8 -24 -54 rlineto
            -121 hlineto
            91 96 rlineto
            47 50 57 65 51 vvcurveto
            87 -61 31 -92 -55 -61 -18 -22 -35 vhcurveto
            23 -53 rlineto
            22 49 39 10 31 hhcurveto
            return
          </CharString>
          <CharString index="34">
            -477 -69 callgsubr
            return
          </CharString>
          <CharString index="35">
            75 179 59.5 129.5 69 return
          </CharString>
          <CharString index="36">
            46 18 -17 -53 hvcurveto
            -70 vlineto
            -135 -28 rlineto
            return
          </CharString>
          <CharString index="37">
            -44 vlineto
            -169 return
          </CharString>
          <CharString index="38">
            rmoveto
            -11 -55 rlineto
            -13 40 42 -11 44 hhcurveto
            89 108 51 196 97 -33 103 -131 -146 -24 -89 -55 -72 51 -58 90 27 27 2 7 26 hvcurveto
            -84 -9 -40 -40 -48 hhcurveto
            -20 -32 5 16 -50 hvcurveto
            202 176 rmoveto
            -13 -16 -28 -13 -20 hhcurveto
            -26 -23 24 60 46 23 35 34 42 14 -48 -91 hvcurveto
            endchar
          </CharString>
          <CharString index="39">
            -477 9 callgsubr
            -85 24 rlineto
            return
          </CharString>
          <CharString index="40">
            rmoveto
            -139 -23 139 110 101 19 146 133 139 22 -146 -101 -104 -17 -145 -134 hvcurveto
            return
          </CharString>
          <CharString index="41">
            rmoveto
            104 63 47 166 hvcurveto
            483 -11 callsubr
            -304 -55 callgsubr
            -505 vlineto
            -70 -12 -52 -60 vhcurveto
            -68 hlineto
            -4 -37 rlineto
            -16 24 34 -16 53 hhcurveto
            endchar
          </CharString>
          <CharString index="42">
            -44 19 rlineto
            0 -17 -31 -25 vhcurveto
            return
          </CharString>
          <CharString index="43">
            -39 -88 37 -49 hhcurveto
            -33 -30 -47 -57 -24 hvcurveto
            47 -19 rlineto
            0 16 31 24 vhcurveto
            return
          </CharString>
          <CharString index="44">
            22 -152 rmoveto
            38 -17 rlineto
            13 -8 19 -30 -26 vvcurveto
            -39 -25 -18 -30 -27 -23 14 49 31 17 25 18 19 vhcurveto
            endchar
          </CharString>
          <CharString index="45">
            rmoveto
            153 161 rlineto
            22 -92 vlineto
            -92 -160 31 -23 rlineto
            161 hmoveto
            153 161 rlineto
            22 -92 vlineto
            -92 -160 31 -23 rlineto
            return
          </CharString>
          <CharString index="46">
            rmoveto
            -53 callsubr
            hintmask 11100000
            -57 callsubr
            hintmask 11010000
            16 callsubr
          </CharString>
          <CharString index="47">
            rmoveto
            23 35 -154 131 -97 -34 -4 -23 232 -109 rlineto
            return
          </CharString>
          <CharString index="48">
            rmoveto
            13 vlineto
            283 51 rlineto
            2 6 1 15 5 vvcurveto
            132 -76 62 -110 -64 -42 -19 -30 -34 vhcurveto
            hintmask 01101110
            30 -23 -39 19 -60 hhcurveto
            -73 -72 -14 -23 -62 hvcurveto
            60 callsubr
            -91 vlineto
            -116 -20 rlineto
            -102 -17 -45 -62 -69 vvcurveto
            -59 44 -48 74 81 64 36 42 52 vhcurveto
            hintmask 10011110
            -47 32 54 -31 92 hhcurveto
            73 callgsubr
            30 123 hvcurveto
            150 110 rmoveto
            -12 vlineto
            -148 -30 rlineto
            84 3 14 63 71 hhcurveto
            53 7 -48 -57 hvcurveto
            -345 -132 rmoveto
            60 11 rlineto
            hintmask 01011110
            -109 110 callsubr
            hvcurveto
            hintmask 10011110
            36 22 24 49 9 vhcurveto
            endchar
          </CharString>
          <CharString index="49">
            646 -104 callsubr
            return
          </CharString>
          <CharString index="50">
            151 -289 rlineto
            -187 9 callgsubr
            -86 24 rlineto
            187 vlineto
            return
          </CharString>
          <CharString index="51">
            162 -56 vlineto
            -26 -93 rlineto
            -150 477 hlineto
            85 23 rlineto
            45 -304 -8 callsubr
            451 vlineto
            return
          </CharString>
          <CharString index="52">
            rmoveto
            -85 -19 82 106 109 18 80 80 86 20 -80 -109 30 callsubr
            hvcurveto
            return
          </CharString>
          <CharString index="53">
            -70 rmoveto
            233 717 rlineto
            -83 hlineto
            -233 -717 rlineto
            83 hlineto
            return
          </CharString>
          <CharString index="54">
            71 -20 -100 -204 -105 202 68 21 rlineto
            47 -283 -45 vlineto
            71 -24 rlineto
            return
          </CharString>
          <CharString index="55">
            165 hlineto
            22 -78 rlineto
            56 146 return
          </CharString>
          <CharString index="56">
            rmoveto
            661 -95 callsubr
            -563 97 callsubr
            return
          </CharString>
          <CharString index="57">
            721 rmoveto
            -103 -25 -65 -70 hvcurveto
            57 -2 rlineto
            27 11 34 58 49 11 -34 -27 vhcurveto
            57 2 rlineto
            70 -13 65 -102 vhcurveto
            return
          </CharString>
          <CharString index="58">
            -18 callgsubr
            -50 return
          </CharString>
          <CharString index="59">
            85 -59 callgsubr
            return
          </CharString>
          <CharString index="60">
            71 34 14 49 32 vvcurveto
            50 -48 45 -98 -107 -46 -52 -58 -50 28 -39 44 -25 vhcurveto
            return
          </CharString>
          <CharString index="61">
            rmoveto
            7 -159 rlineto
            55 hlineto
            19 91 rlineto
            114 -477 hlineto
            -84 -24 rlineto
            -45 304 -41 callsubr
            477 112 vlineto
            20 -91 rlineto
            57 hlineto
            6 159 rlineto
            -525 hlineto
            return
          </CharString>
          <CharString index="62">
            -5 callsubr
            75 -57 29 -65 -59 -85 -24 -16 -34 vhcurveto
            269 -95 callsubr
            -563 -49 callsubr
            45 callsubr
            6 21 28 6 51 hhcurveto
            54 112 callsubr
            return
          </CharString>
          <CharString index="63">
            rmoveto
            -216 -87 -144 -173 -124 44 -108 101 -53 hvcurveto
            -46 -120 rlineto
            81 hlineto
            37 94 rlineto
            -6 26 28 -3 32 hhcurveto
            216 84 145 175 126 -44 111 -108 50 hvcurveto
            43 110 rlineto
            -84 hlineto
            -34 -86 rlineto
            4 -22 -25 2 -26 hhcurveto
            -158 -317 rmoveto
            105 19 149 133 20 18 -3 -6 16 vhcurveto
            -168 -434 rlineto
            -31 52 -7 73 64 vvcurveto
            313 hmoveto
            -108 -17 -149 -134 -25 -21 4 8 -18 vhcurveto
            171 438 rlineto
            36 -53 8 -78 -62 vvcurveto
            endchar
          </CharString>
          <CharString index="64">
            -71 callsubr
            -102 callgsubr
            return
          </CharString>
          <CharString index="65">
            305 45 hlineto
            -85 24 rlineto
            477 -11 callsubr
            -306 -45 vlineto
            86 -23 rlineto
            -211 -226 211 -11 callsubr
            -305 -55 callgsubr
            -477 96 callgsubr
            305 -41 callsubr
            207 226 -207 vlineto
            return
          </CharString>
          <CharString index="66">
            -16 callsubr
            rlineto
            return
          </CharString>
          <CharString index="67">
            rmoveto
            70 hlineto
            15 51 rlineto
            134 hlineto
            -166 -369 111 -11 159 393 -15 45 rlineto
            -314 hlineto
            6 -109 rlineto
            return
          </CharString>
          <CharString index="68">
            -12 0 -22 callsubr
            return
          </CharString>
          <CharString index="69">
            -103 -22 -65 -70 hvcurveto
            56 -2 rlineto
            27 12 34 53 50 13 -34 -27 vhcurveto
            59 2 rlineto
            return
          </CharString>
          <CharString index="70">
            rmoveto
            -71 callsubr
            hintmask 11101100
            -101 callgsubr
            -93 callsubr
            hintmask 11100100
            -37 callgsubr
            hintmask 11101100
            -12 callsubr
          </CharString>
          <CharString index="71">
            -12 0 57 callsubr
            123 59 callsubr
            hintmask 11111010
            return
          </CharString>
          <CharString index="72">
            -57 -105 callsubr
            return
          </CharString>
          <CharString index="73">
            -69 callgsubr
            292 vlineto
            212 85 145 175 return
          </CharString>
          <CharString index="74">
            rmoveto
            -79 241 79 -241 vlineto
            return
          </CharString>
          <CharString index="75">
            -47 -14 71 254 75 179 64 hstem
            31 130 188 128 vstem
            162 333 rmoveto
            13 147 72 84 107 1 rrcurveto
            28 12 -1 -6 33 hvcurveto
            8 60 rlineto
            9 -35 -15 2 -45 hhcurveto
            -145 -164 -114 -271 -114 27 -144 188 188 43 128 85 108 -59 79 -122 -73 -40 -31 -22 -21 hvcurveto
            -1 -94 rmoveto
            36 21 34 36 51 hhcurveto
            66 16 -59 -71 -71 -29 -53 -66 -78 -15 84 98 hvcurveto
            endchar
          </CharString>
          <CharString index="76">
            71 205 68 vstem
            382 403 rmoveto
            170 -76 56 -96 -96 -79 -57 -169 -167 79 -58 96 96 76 56 169 vhcurveto
            15 -403 rmoveto
            224 614 rlineto
            -86 hlineto
            -224 -614 rlineto
            86 hlineto
            -187 264 rmoveto
            -46 -56 25 114 118 56 23 46 45 58 -23 -114 -116 -58 -27 -45 hvcurveto
            682 -47 rmoveto
            170 -75 57 -95 -97 -77 -58 -169 -167 77 -58 97 95 75 56 169 vhcurveto
            return
          </CharString>
          <CharString index="77">
            -114 -16 87 115 return
          </CharString>
          <CharString index="78">
            41 445 -100 callsubr
            return
          </CharString>
          <CharString index="79">
            77 -10 82 hstem
            88 138 145 139 vstem
            589 12 rmoveto
            43 vlineto
            -79 28 rlineto
            419 -46 vlineto
            -157 -37 rlineto
            -44 vlineto
            64 -10 rlineto
            -306 vlineto
            -19 -28 -29 -14 -35 hhcurveto
            -43 -10 24 47 hvcurveto
            359 -43 vlineto
            -173 -37 rlineto
            -44 vlineto
            78 -9 rlineto
            -612 123 vlineto
            -26 210 rlineto
            -15 24 30 -5 26 hhcurveto
            52 35 28 34 23 hvcurveto
            -37 8 45 -20 46 hhcurveto
            34 33 5 12 48 hvcurveto
            endchar
          </CharString>
          <CharString index="80">
            rmoveto
            -62 -24 72 103 115 31 74 67 24 34 -11 -16 18 hvcurveto
            -303 vlineto
            -16 -15 -37 -18 -36 hhcurveto
            return
          </CharString>
          <CharString index="81">
            -49 callsubr
            273 vlineto
            308 hmoveto
            52 vlineto
            -55 19 -179 224 107 129 94 18 rlineto
            50 -256 -50 vlineto
            65 -15 -139 -169 151 -189 -43 -17 rlineto
            -52 255 vlineto
            return
          </CharString>
          <CharString index="82">
            114 callsubr
            339 vlineto
            return
          </CharString>
          <CharString index="83">
            hstemhm
            -26 callgsubr
            return
          </CharString>
          <CharString index="84">
            25 callsubr
            hintmask 11011100
            -64 callsubr
            -31 callgsubr
            return
          </CharString>
          <CharString index="85">
            69 205 56 216 68 return
          </CharString>
          <CharString index="86">
            104 -9 72 506 45 return
          </CharString>
          <CharString index="87">
            -41 -10 81 355 76 return
          </CharString>
          <CharString index="88">
            621 -7 callsubr
            -82 13 callsubr
            return
          </CharString>
          <CharString index="89">
            391 559 -95 callgsubr
            -121 -35 callsubr
            return
          </CharString>
          <CharString index="90">
            30 145 313 145 return
          </CharString>
          <CharString index="91">
            45 vlineto
            -85 24 return
          </CharString>
          <CharString index="92">
            rmoveto
            115 -360 107 434 hlineto
            -222 -33 rlineto
            -41 vlineto
            return
          </CharString>
          <CharString index="93">
            43 vlineto
            -78 28 rlineto
            return
          </CharString>
          <CharString index="94">
            71 callgsubr
            hstem
            103 135 165 135 vstem
            return
          </CharString>
          <CharString index="95">
            -97 callgsubr
            endchar
          </CharString>
          <CharString index="96">
            vlineto
            -16 callgsubr
            return
          </CharString>
          <CharString index="97">
            135 152 135 return
          </CharString>
          <CharString index="98">
            -28 -32 -4 -7 -32 return
          </CharString>
          <CharString index="99">
            -45 vlineto
            84 -59 callgsubr
            return
          </CharString>
          <CharString index="100">
            rmoveto
            35 23 -90 186 rlineto
            -105 hlineto
            -12 -19 172 -190 rlineto
            return
          </CharString>
          <CharString index="101">
            486 hmoveto
            -56 callsubr
            return
          </CharString>
          <CharString index="102">
            45 vlineto
            -79 25 rlineto
            328 vlineto
            return
          </CharString>
          <CharString index="103">
            -74 -9 72 495 70 hstem
            41 114 172 123 vstem
            return
          </CharString>
          <CharString index="104">
            62 -9 72 181 45 269 96 callsubr
            237 135 vstem
            return
          </CharString>
          <CharString index="105">
            hstem
            -17 callsubr
            vstem
            return
          </CharString>
          <CharString index="106">
            5 454 rmoveto
            -133 110 -111 133 135 108 111 133 135 -108 109 -135 -133 -110 -109 -135 vhcurveto
            37 hmoveto
            114 95 97 112 115 92 -97 -114 -114 -92 -97 -115 -112 -95 97 114 vhcurveto
            return
          </CharString>
          <CharString index="107">
            rmoveto
            26 17 31 25 30 hhcurveto
            32 10 -35 -46 -47 -20 -34 -45 -40 -11 48 63 -4 hvcurveto
            endchar
          </CharString>
          <CharString index="108">
            756 rmoveto
            41 -227 rlineto
            40 hlineto
            32 204 -68 23 rlineto
            -45 hlineto
            return
          </CharString>
          <CharString index="109">
            63 -10 82 hstem
            50 callgsubr
            vstem
            return
          </CharString>
          <CharString index="110">
            vstem
            461 614 -94 callsubr
            return
          </CharString>
          <CharString index="111">
            -4 0 62 hstemhm
            37 509 -146 146 hintmask 11000000
            37 hmoveto
            hintmask 10100000
            509 38 hlineto
            -212 573 rlineto
            -84 hlineto
            hintmask 11000000
            -213 -611 rlineto
            99 62 rmoveto
            132 400 rlineto
            hintmask 10100000
            132 -380 rlineto
            -20 vlineto
            hintmask 11000000
            -264 hlineto
            endchar
          </CharString>
          <CharString index="112">
            24 15 vhcurveto
            -23 22 rlineto
            -9 -13 -21 -13 -26 hhcurveto
            -28 -16 14 32 return
          </CharString>
          <CharString index="113">
            -115 rmoveto
            -108 21 rlineto
            520 vlineto
            6 20 24 3 26 hhcurveto
            94 11 -102 -85 -110 -11 -75 -104 -11 -20 3 2 -9 hvcurveto
            -13 -52 rlineto
            -11 32 26 -5 26 hhcurveto
            150 79 99 145 168 -59 90 -191 return
          </CharString>
          <CharString index="114">
            41 0 51 callgsubr
            45 callgsubr
            151 136 vstem
            return
          </CharString>
          <CharString index="115">
            127 -168 72 147 71 447 45 return
          </CharString>
          <CharString index="116">
            -182 33 callsubr
            return
          </CharString>
          <CharString index="117">
            -42 -2 callgsubr
            return
          </CharString>
          <CharString index="118">
            13 6 callgsubr
            vlineto
            hintmask 01100000
            112 -61 vlineto
            21 callgsubr
            hintmask 10100000
            38 63 9 13 42 hvcurveto
            return
          </CharString>
          <CharString index="119">
            765 -53 callgsubr
            hintmask 11101110
            -85 callgsubr
            hintmask 11110110
            -79 callsubr
            return
          </CharString>
          <CharString index="120">
            -62 -95 callgsubr
            return
          </CharString>
          <CharString index="121">
            58 115 56 165 53 hstem
            35 111 113 110 vstem
            57 return
          </CharString>
          <CharString index="122">
            59 callgsubr
            -104 -41 -78 -100 return
          </CharString>
          <CharString index="123">
            3 callgsubr
            endchar
          </CharString>
          <CharString index="124">
            57 167 54 106 57 hstem
            73 87.5 86.5 113 vstem
            338 return
          </CharString>
          <CharString index="125">
            38 -168 72 131 85 hstem
            99 -10 callsubr
            vstem
            return
          </CharString>
          <CharString index="126">
            152 81 150 return
          </CharString>
          <CharString index="127">
            -47 -56 26 113 117 56 24 47 46 56 -24 -113 -114 -56 -29 -46 hvcurveto
            return
          </CharString>
          <CharString index="128">
            56 151 46 141 56 hstemhm
            226 111 -92 112 return
          </CharString>
          <CharString index="129">
            -274 33 callgsubr
            return
          </CharString>
          <CharString index="130">
            -13 -8 callgsubr
            34 113 callsubr
            25 145 18 168 18 145 return
          </CharString>
          <CharString index="131">
            18 33 callsubr
            hstemhm
            231 134 -7 220 return
          </CharString>
          <CharString index="132">
            687 -53 callgsubr
            return
          </CharString>
          <CharString index="133">
            -100 -42 vhcurveto
            10 -37 rlineto
            143 42 35 75 213 vvcurveto
            210 -35 79 -143 41 vhcurveto
            -10 -38 rlineto
            100 -44 0 -162 -86 vvcurveto
            endchar
          </CharString>
          <CharString index="134">
            -96 251 47 27 rlineto
            40 vlineto
            endchar
          </CharString>
          <CharString index="135">
            743 rmoveto
            23 vlineto
            -99 34 -156 -131 27 -35 228 109 rlineto
            return
          </CharString>
          <CharString index="136">
            rmoveto
            -44 callgsubr
            -45 vlineto
            59 callgsubr
            return
          </CharString>
          <CharString index="137">
            -106 -16 -82 -84 return
          </CharString>
          <CharString index="138">
            79 hstem
            215 79 vstem
            215 341 rmoveto
            -167 -79 167 -168 79 168 168 79 -168 167 -79 -167 hlineto
            return
          </CharString>
          <CharString index="139">
            63 -10 82 380 50 hstem
            50 callgsubr
            52 98 vstem
            return
          </CharString>
          <CharString index="140">
            0 122 callgsubr
            return
          </CharString>
          <CharString index="141">
            rmoveto
            -216 -87 -144 -173 -175 90 -145 213 216 84 145 175 173 -82 144 -218 hvcurveto
            return
          </CharString>
          <CharString index="142">
            rmoveto
            108 67 -96 -136 -136 -24 -127 -126 -27 -29 5 7 -22 hvcurveto
            477 vlineto
            42 callgsubr
            return
          </CharString>
          <CharString index="143">
            -144 -323 rmoveto
            144 47 callsubr
            -53 -34 -96 -66 -21 22 32 27 13 70 callgsubr
          </CharString>
          <CharString index="144">
            vstem
            214 655 rmoveto
            -137 -52 -86 -107 -103 53 -89 136 135 53 89 103 107 -51 86 -137 hvcurveto
            return
          </CharString>
          <CharString index="145">
            162 94 callgsubr
            69 357 73 vstem
            return
          </CharString>
          <CharString index="146">
            55 162 56 122 52 hstem
            35 107 120 112 vstem
            return
          </CharString>
          <CharString index="147">
            -107 46 callsubr
            42 112 148 114 vstem
            return
          </CharString>
          <CharString index="148">
            -9 -11 37 callgsubr
            vstem
            return
          </CharString>
          <CharString index="149">
            34 -37 20 -64 return
          </CharString>
          <CharString index="150">
            -305 -45 hlineto
            55 callgsubr
          </CharString>
          <CharString index="151">
            53 35 -77 143 77 145 -53 34 -141 -179 return
          </CharString>
          <CharString index="152">
            273 -25 callsubr
            return
          </CharString>
          <CharString index="153">
            -29 callgsubr
            hstem
            return
          </CharString>
          <CharString index="154">
            hlineto
            38 23 0 -36 -52 return
          </CharString>
          <CharString index="155">
            102 callgsubr
            84 168 -149 135 return
          </CharString>
          <CharString index="156">
            rmoveto
            -414 -79 414 79 hlineto
            return
          </CharString>
          <CharString index="157">
            -61 -100 -83 -37 rlineto
            -47 72 return
          </CharString>
          <CharString index="158">
            -74 24 rlineto
            199 25 vlineto
            return
          </CharString>
          <CharString index="159">
            -58 callsubr
            hintmask 11010000
            return
          </CharString>
          <CharString index="160">
            -41 -8 callgsubr
            34 81 355 76 88 callsubr
            8 168 -45 135 hintmask 11110100
            return
          </CharString>
          <CharString index="161">
            29 callsubr
            -104 -41 -78 -100 return
          </CharString>
          <CharString index="162">
            135 hintmask 00000000
            return
          </CharString>
          <CharString index="163">
            -13 -47 callgsubr
            return
          </CharString>
          <CharString index="164">
            -22 callsubr
            -24 callsubr
            return
          </CharString>
          <CharString index="165">
            -83 -39 rlineto
            -48 83 -350 vlineto
            -78 return
          </CharString>
          <CharString index="166">
            53 11 56 -36 56 return
          </CharString>
          <CharString index="167">
            82 callsubr
            46 18 -17 -53 hvcurveto
            return
          </CharString>
          <CharString index="168">
            169 -150 69 81 122 callgsubr
            45 callgsubr
            234 134 vstem
            return
          </CharString>
          <CharString index="169">
            179 0 45 231 59 234 45 45 callgsubr
            226 135 vstem
            return
          </CharString>
          <CharString index="170">
            37 84 callsubr
            108 54 60 callgsubr
            3 168 hintmask 01101000
            return
          </CharString>
          <CharString index="171">
            94 callsubr
            86 133 return
          </CharString>
          <CharString index="172">
            24 282 vlineto
            return
          </CharString>
          <CharString index="173">
            667 rmoveto
            23 vlineto
            -99 40 -156 -137 27 -35 228 109 rlineto
            return
          </CharString>
          <CharString index="174">
            61 hstem
            222 101 vstem
            222 return
          </CharString>
          <CharString index="175">
            11 18 25 5 22 hhcurveto
            return
          </CharString>
          <CharString index="176">
            50 hstem
            96 135 vstem
            return
          </CharString>
          <CharString index="177">
            -60 -25 rlineto
            -45 return
          </CharString>
          <CharString index="178">
            76 85 callsubr
            -51 115 callgsubr
            -42 136 hintmask 00000000
            hintmask 11110110
            return
          </CharString>
          <CharString index="179">
            69 callgsubr
            70 callsubr
            274 45 vlineto
            -79 25 rlineto
            return
          </CharString>
          <CharString index="180">
            81 70 -81 408 hlineto
            -102 10 -311 -439 17 -49 rlineto
            273 return
          </CharString>
          <CharString index="181">
            244 569 45 hstem
            -3 818 vstem
            return
          </CharString>
          <CharString index="182">
            45 callgsubr
            228 142 vstem
            return
          </CharString>
          <CharString index="183">
            67 hstem
            0 callgsubr
            return
          </CharString>
          <CharString index="184">
            hhcurveto
            27 20 4 9 38 hvcurveto
            36 vlineto
            -54 25 rlineto
            209 vlineto
            80 return
          </CharString>
          <CharString index="185">
            -116 rmoveto
            87 214 -23 29 -97 -23 -13 -212 46 -8 rlineto
            return
          </CharString>
          <CharString index="186">
            -222 -167 52.5 761.5 51 hstem
            return
          </CharString>
          <CharString index="187">
            86 callgsubr
            hvcurveto
            return
          </CharString>
          <CharString index="188">
            250 vlineto
            4 17 20 1 18 hhcurveto
            57 35 -49 -72 -76 -39 return
          </CharString>
          <CharString index="189">
            17 -135 rlineto
            59 hlineto
            22 84 rlineto
            -37 callgsubr
            return
          </CharString>
          <CharString index="190">
            58 hstem
            35 329 vstem
            41 return
          </CharString>
          <CharString index="191">
            -8 callgsubr
            44 45 return
          </CharString>
          <CharString index="192">
            hstemhm
            0 callgsubr
            return
          </CharString>
          <CharString index="193">
            -206 -150 69 650 45 hstem
            114 134 vstem
            return
          </CharString>
          <CharString index="194">
            -228 0 50 return
          </CharString>
          <CharString index="195">
            hstemhm
            34 132 return
          </CharString>
          <CharString index="196">
            92 -55 92 85 callsubr
            77 callgsubr
            hintmask 11110110
            return
          </CharString>
          <CharString index="197">
            109 callgsubr
            hintmask 11101100
            return
          </CharString>
          <CharString index="198">
            86 280 86 hstem
            33 76 198 74 vstem
            381 return
          </CharString>
          <CharString index="199">
            rlineto
            424 hlineto
            1 -1 13 169 0 vvcurveto
            -59 hlineto
            return
          </CharString>
          <CharString index="200">
            rmoveto
            172 249 rlineto
            -249 -172 vlineto
            endchar
          </CharString>
          <CharString index="201">
            47 callgsubr
            47 hstemhm
            return
          </CharString>
          <CharString index="202">
            183 hstem
            -300 345 vstem
            return
          </CharString>
          <CharString index="203">
            71 hstem
            30 142 return
          </CharString>
          <CharString index="204">
            -49 callsubr
            291 50 vlineto
            -78 20 rlineto
            return
          </CharString>
          <CharString index="205">
            309 75 callgsubr
            return
          </CharString>
          <CharString index="206">
            -25 callsubr
            6 20 32 6 return
          </CharString>
          <CharString index="207">
            vlineto
            104 callsubr
            return
          </CharString>
          <CharString index="208">
            85 callgsubr
            hstem
            return
          </CharString>
          <CharString index="209">
            hstem
            165 107 vstem
            50 return
          </CharString>
          <CharString index="210">
            71 348 73 return
          </CharString>
          <CharString index="211">
            -16 callgsubr
            -304 52 callgsubr
            return
          </CharString>
          <CharString index="212">
            789 -53 callgsubr
            return
          </CharString>
          <CharString index="213">
            112 -61 vlineto
            50 callsubr
            return
          </CharString>
          <CharString index="214">
            119 callgsubr
            rlineto
            return
          </CharString>
          <CharString index="215">
            -33 -43 vhcurveto
            188 hmoveto
            -40 32 -30 39 41 return
          </CharString>
          <CharString index="216">
            -227 -168 76 hstem
            110 135 vstem
            return
          </CharString>
          <CharString index="217">
            vlineto
            -12 -17 -34 -15 -28 hhcurveto
            -32 -20 17 39 return
          </CharString>
          <CharString index="218">
            -45 vlineto
            -168 -99 callgsubr
            return
          </CharString>
          <CharString index="219">
            11 69 callgsubr
            return
          </CharString>
          <CharString index="220">
            68 377 67 hstemhm
            return
          </CharString>
          <CharString index="221">
            45 vlineto
            -60 25 rlineto
            return
          </CharString>
          <CharString index="222">
            -168 76 92 return
          </CharString>
          <CharString index="223">
            270 59 272 54 hstem
            25 124 return
          </CharString>
          <CharString index="224">
            106 hstem
            31 98 254 96 vstem
            479 return
          </CharString>
          <CharString index="225">
            -52 -34 78 -145 -78 -143 52 -35 return
          </CharString>
          <CharString index="226">
            hstem
            9 265 vstem
            274 203 rmoveto
            return
          </CharString>
          <CharString index="227">
            hintmask 00000000
            hintmask 11110000
            return
          </CharString>
          <CharString index="228">
            145 hintmask 00000000
            return
          </CharString>
        <CharString name=".notdef">
          -352 endchar
        </CharString>
        <CharString name="A">
          -7 callgsubr
          142 68 -89 callsubr
          hintmask 11100000
          -76 callsubr
          hintmask 11010000
          -87 callsubr
          endchar
        </CharString>
        <CharString name="AE">
          31 callgsubr
          hintmask 0000000000000000
          hintmask 1001111001000000
          441 316 -38 callgsubr
        </CharString>
        <CharString name="AEacute">
          31 callgsubr
          hintmask 0110110110100000
          312 634 -86 callsubr
          hintmask 1001111001000000
          129 -318 -38 callgsubr
        </CharString>
        <CharString name="Aacute">
          -7 callgsubr
          210 634 -86 callsubr
          -68 -566 -89 callsubr
          hintmask 11100000
          -76 callsubr
          hintmask 11010000
          -87 callsubr
          endchar
        </CharString>
        <CharString name="Abreve">
          -20 callgsubr
          444 76 60 callgsubr
          -47 59 127 57 hintmask 11101100
          286 651 rmoveto
          103 17 65 70 hvcurveto
          -57 2 rlineto
          -27 -11 -34 -58 -49 -9 34 27 vhcurveto
          -59 -2 rlineto
          -70 21 -65 102 vhcurveto
          -144 -583 -89 callsubr
          hintmask 11110100
          -76 callsubr
          hintmask 11101100
          -87 callsubr
          endchar
        </CharString>
        <CharString name="Acircumflex">
          -7 callgsubr
          418 640 -101 callsubr
          -276 36 callgsubr
          hintmask 11100000
          -76 callsubr
          hintmask 11010000
          -87 callsubr
          endchar
        </CharString>
        <CharString name="Adieresis">
          -20 callgsubr
          440 145 60 callgsubr
          -109 19 callsubr
          hintmask 11101100
          253 719 -103 callsubr
          -342 -651 -89 callsubr
          hintmask 11110100
          -76 callsubr
          hintmask 11101100
          -87 callsubr
          endchar
        </CharString>
        <CharString name="Agrave">
          -7 callgsubr
          373 634 -60 callsubr
          -231 -566 -89 callsubr
          hintmask 11100000
          -76 callsubr
          hintmask 11010000
          -87 callsubr
          endchar
        </CharString>
        <CharString name="Amacron">
          -20 callgsubr
          472 79 60 callgsubr
          -43 241 hintmask 00000000
          hintmask 11101000
          167 758 -33 callsubr
          -25 -690 -89 callsubr
          hintmask 11110000
          -76 callsubr
          hintmask 11101000
          -87 callsubr
          endchar
        </CharString>
        <CharString name="Aogonek">
          37 -233 62 171 45 108 54 hstem
          -10 220 70 85 vstem
          142 68 rmoveto
          28 85 rlineto
          192 hlineto
          22 -68 rlineto
          2 -6 5 -19 -9 -50 -111 -58 -90 vvcurveto
          -45 26 -41 76 76 34 62 0 vhcurveto
          -23 22 rlineto
          -14 -20 -19 -8 -22 hhcurveto
          -32 -11 20 35 66 58 50 65 hvcurveto
          116 45 hlineto
          -71 24 -205 558 -78 -13 -189 -545 -71 -25 rlineto
          -44 220 45 vlineto
          -87 callsubr
          endchar
        </CharString>
        <CharString name="Aring">
          -20 callgsubr
          420 47 97 48 60 callgsubr
          -37 74 79 74 hintmask 11110110
          400 -43 callgsubr
          -144 -703 -89 callsubr
          hintmask 11111010
          -76 callsubr
          hintmask 11110110
          -87 callsubr
          endchar
        </CharString>
        <CharString name="Aringacute">
          -20 callgsubr
          420 47 97 48 60 callgsubr
          -27 74 79 74 hintmask 11110110
          296 627 4 callgsubr
          237 -702 rmoveto
          -205 558 -78 -13 rlineto
          hintmask 11111010
          -21 callgsubr
          hintmask 11110110
          -71 24 rlineto
          18 callgsubr
        </CharString>
        <CharString name="Atilde">
          -20 callgsubr
          454 92 -55 92 60 callgsubr
          -220 614 hintmask 11100100
          468 765 -53 callgsubr
          hintmask 11010100
          -85 callgsubr
          hintmask 11100100
          -79 callsubr
          -326 -697 -89 callsubr
          hintmask 11101000
          -76 callsubr
          hintmask 11100100
          -87 callsubr
          endchar
        </CharString>
        <CharString name="B">
          36 0 63 226 54 210 61 -24 callsubr
          137 135 -123 139 hintmask 11110100
          384 324 rmoveto
          hintmask 11111000
          82 14 61 49 77 vvcurveto
          89 -59 61 -159 vhcurveto
          -274 -84 callgsubr
          264 vlineto
          hintmask 11110100
          164 79 68 101 79 -49 61 -110 15 hvcurveto
          hintmask 11111000
          -100 19 rmoveto
          -29 203 hlineto
          0 21 7 28 53 35 -28 -65 -95 -57 -22 -51 vhcurveto
          -29 -274 rmoveto
          220 27 vlineto
          hintmask 11110100
          66 56 -35 -79 -78 -42 -34 -58 hvcurveto
          hintmask 11111000
          -17 -19 2 4 -13 hvcurveto
          endchar
        </CharString>
        <CharString name="C">
          41 callsubr
          518 21 -78 callgsubr
        </CharString>
        <CharString name="Cacute">
          41 callsubr
          237 634 -86 callsubr
          281 -613 -78 callgsubr
        </CharString>
        <CharString name="Cacute.loclPLK">
          41 callsubr
          315 631 -54 callgsubr
          203 -610 -78 callgsubr
        </CharString>
        <CharString name="Ccaron">
          41 callsubr
          468 775 -88 callgsubr
          50 -754 -78 callgsubr
        </CharString>
        <CharString name="Ccedilla">
          -9 -220 44 165 37 callgsubr
          159 96 vstem
          518 21 rmoveto
          -8 141 rlineto
          -53 hlineto
          -25 -86 rlineto
          -9 -31 -29 -4 -27 hhcurveto
          -137 -36 129 120 125 30 121 147 25 35 -4 -9 23 hvcurveto
          25 -98 rlineto
          50 hlineto
          11 153 rlineto
          14 -49 -53 15 -86 hhcurveto
          -217 -83 -144 -173 -166 76 -139 186 -16 hvcurveto
          -23 -64 -75 callgsubr
          11 35 73 1 51 12 55 19 rlinecurve
          endchar
        </CharString>
        <CharString name="Ccircumflex">
          41 callsubr
          443 640 -101 callsubr
          75 -619 -78 callgsubr
        </CharString>
        <CharString name="Cdotaccent">
          -9 -11 74 495 71 6 164 hstemhm
          30 142 58 168 hintmask 00000000
          hintmask 10111000
          398 -25 callgsubr
          120 -694 rmoveto
          -8 141 rlineto
          -53 hlineto
          -25 -86 rlineto
          -9 -31 -29 -4 -27 hhcurveto
          -137 -36 129 120 hvcurveto
          hintmask 11010000
          125 30 121 147 25 35 -4 -9 23 vhcurveto
          25 -98 rlineto
          50 hlineto
          11 153 rlineto
          14 -49 -53 15 -86 hhcurveto
          -217 -83 -144 -173 -176 86 -147 214 hvcurveto
          hintmask 10111000
          78 53 12 20 57 hvcurveto
          endchar
        </CharString>
        <CharString name="D">
          98 0 57 495 62 75 callsubr
          309 614 rmoveto
          -274 -45 hlineto
          85 -23 rlineto
          -477 -49 callgsubr
          477 vlineto
          3 12 15 3 26 hhcurveto
          endchar
        </CharString>
        <CharString name="Dcaron">
          98 0 57 495 62 75 callsubr
          460 775 -88 callgsubr
          -151 -161 rmoveto
          -274 -45 hlineto
          85 -23 rlineto
          -477 -49 callgsubr
          477 vlineto
          3 12 15 3 26 hhcurveto
          endchar
        </CharString>
        <CharString name="Dcroat">
          98 0 57 217 56 222 62 75 callsubr
          98 callsubr
          -216 -83 -56 83 -205 -49 callgsubr
          205 113 56 -113 216 vlineto
          42 callgsubr
          endchar
        </CharString>
        <CharString name="E">
          -36 callsubr
          378 396 -32 callgsubr
          hintmask 11111100
          -92 callgsubr
          hintmask 11111010
          -85 callsubr
          endchar
        </CharString>
        <CharString name="Eacute">
          -36 callsubr
          201 634 -86 callsubr
          177 -238 -32 callgsubr
          hintmask 11111100
          -92 callgsubr
          hintmask 11111010
          -85 callsubr
          endchar
        </CharString>
        <CharString name="Ebreve">
          -39 callsubr
          37 76 -24 callsubr
          -104 59 128 56 -16 59 callsubr
          hintmask 0000000000000000
          hintmask 1111011001000000
          269 651 rmoveto
          -78 callsubr
          -70 16 -65 102 vhcurveto
          hintmask 1111100101000000
          109 -255 -32 callgsubr
          hintmask 1111100110000000
          -92 callgsubr
          hintmask 1111100101000000
          -85 callsubr
          endchar
        </CharString>
        <CharString name="Ecaron">
          -36 callsubr
          452 775 -88 callgsubr
          -74 -379 -32 callgsubr
          hintmask 11111100
          -92 callgsubr
          hintmask 11111010
          -85 callsubr
          endchar
        </CharString>
        <CharString name="Ecircumflex">
          -36 callsubr
          414 640 -101 callsubr
          -36 46 callgsubr
          hintmask 11111100
          -92 callgsubr
          hintmask 11111010
          -85 callsubr
          endchar
        </CharString>
        <CharString name="Edieresis">
          -39 callsubr
          33 145 hstemhm
          84 152 -116 135 62 150 -89 59 callsubr
          hintmask 0000000000000000
          hintmask 1111101000000000
          236 719 -103 callsubr
          hintmask 1110010101000000
          -89 -323 -32 callgsubr
          hintmask 1110010110000000
          -92 callgsubr
          hintmask 1110010101000000
          -85 callsubr
          endchar
        </CharString>
        <CharString name="Edotaccent">
          -39 callsubr
          21 164 -24 callsubr
          -47 168 2 59 callsubr
          hintmask 0000000000000000
          hintmask 1111010010000000
          376 -25 callgsubr
          hintmask 1110101010000000
          2 -319 -32 callgsubr
          hintmask 1110101100000000
          -92 callgsubr
          hintmask 1110101010000000
          -85 callsubr
          endchar
        </CharString>
        <CharString name="Egrave">
          -36 callsubr
          373 634 -60 callsubr
          5 -238 -32 callgsubr
          hintmask 11111100
          -92 callgsubr
          hintmask 11111010
          -85 callsubr
          endchar
        </CharString>
        <CharString name="Emacron">
          -39 callsubr
          65 79 -24 callsubr
          -82 241 -36 59 callsubr
          hintmask 1111101010000000
          173 758 rmoveto
          -79 vlineto
          hintmask 1111010010000000
          241 79 hlineto
          hintmask 1111101010000000
          -241 hlineto
          205 -362 -32 callgsubr
          hintmask 1111101100000000
          -92 callgsubr
          hintmask 1111101010000000
          -85 callsubr
          endchar
        </CharString>
        <CharString name="Eng">
          162 115 callsubr
          122 callgsubr
          hstem
          120 69 357 73 vstem
          470 -168 rmoveto
          71 78 54 170 hvcurveto
          490 -11 callsubr
          -243 -55 callgsubr
          -383 vlineto
          -305 451 rlineto
          -206 -84 callgsubr
          238 -41 callsubr
          387 vlineto
          295 -432 rlineto
          -43 vlineto
          -33 -20 -40 -53 vhcurveto
          -45 hlineto
          -6 -47 rlineto
          -20 42 45 -9 23 hhcurveto
          endchar
        </CharString>
        <CharString name="Eogonek">
          -12 -233 62 171 57 callsubr
          77 85 -39 59 callsubr
          hintmask 1111101010000000
          378 396 -32 callgsubr
          hintmask 1111101100000000
          -92 callgsubr
          hintmask 1111110010000000
          386 hlineto
          -62 -51 -28 -57 -39 -5 callgsubr
          -32 -11 20 25 65 45 56 5 5 hvcurveto
          51 56 callgsubr
          -26 -93 rlineto
          -181 205 hlineto
          hintmask 1111101010000000
          104 hlineto
          19 -69 rlineto
          53 191 -53 hlineto
          endchar
        </CharString>
        <CharString name="Eth">
          101 0 57 217 56 222 62 hstem
          123 135 228 142 vstem
          312 75 callgsubr
          -216 -83 -56 83 -205 -34 callsubr
          174 -91 120 -225 hvcurveto
          59 -340 rmoveto
          56 -113 216 vlineto
          42 callgsubr
          108 67 -96 -136 -136 -24 -127 -126 -27 -29 5 7 -22 hvcurveto
          205 113 vlineto
          endchar
        </CharString>
        <CharString name="Euro">
          -19 -5 65 152 58 61 58 166 67 hstem
          101 134 vstem
          235 311 rmoveto
          20 170 vlineto
          9 58 rlineto
          -175 hlineto
          135 14 55 31 56 hhcurveto
          25 17 -3 -6 20 hvcurveto
          23 -89 rlineto
          47 hlineto
          13 137 rlineto
          15 -46 -62 13 -54 hhcurveto
          -114 -104 -52 -181 -23 hvcurveto
          -81 hlineto
          -9 -58 rlineto
          85 -18 hlineto
          -14 0 -18 1 -11 vhcurveto
          -77 hlineto
          -9 -58 rlineto
          92 hlineto
          -192 27 115 -25 115 hhcurveto
          57 41 8 15 42 hvcurveto
          -10 54 rlineto
          -6 -34 -36 -6 -31 hhcurveto
          -104 -38 63 89 -12 hvcurveto
          165 hlineto
          9 58 rlineto
          -178 hlineto
          -1 11 0 17 13 vvcurveto
          endchar
        </CharString>
        <CharString name="F">
          -44 0 45 219 56 226 68 -24 callsubr
          123 53 11 56 hintmask 00000000
          hintmask 11111100
          498 614 rmoveto
          -70 callgsubr
          325 50 vlineto
          -106 25 rlineto
          189 vlineto
          hintmask 11111000
          104 hlineto
          19 -69 rlineto
          53 191 -53 hlineto
          -17 -66 rlineto
          -106 226 hlineto
          hintmask 11111100
          -52 callsubr
          hlineto
          endchar
        </CharString>
        <CharString name="G">
          -3 callsubr
          450 545 -99 callsubr
          endchar
        </CharString>
        <CharString name="G_tilde.loclGUA">
          62 -9 72 181 45 269 71 32 89 callgsubr
          30 142 237 135 hintmask 11110110
          506 12 callsubr
          -56 -220 -99 callsubr
          endchar
        </CharString>
        <CharString name="Gbreve">
          62 -9 72 181 45 269 71 22 76 hstemhm
          30 142 34 59 128 56 -40 55 callsubr
          hintmask 11111110
          324 651 rmoveto
          -78 callsubr
          -70 16 -65 102 vhcurveto
          hintmask 11101101
          126 -106 -99 callsubr
          endchar
        </CharString>
        <CharString name="Gcaron">
          -3 callsubr
          462 775 -88 callgsubr
          -12 -230 -99 callsubr
          endchar
        </CharString>
        <CharString name="Gcircumflex">
          -3 callsubr
          439 640 -101 callsubr
          11 -95 -99 callsubr
          endchar
        </CharString>
        <CharString name="Gcommaaccent">
          -3 callsubr
          450 545 -99 callsubr
          -138 -781 -56 callgsubr
        </CharString>
        <CharString name="Gdotaccent">
          62 -9 72 181 45 269 71 6 164 hstemhm
          30 142 54 168 15 55 callsubr
          hintmask 11011110
          394 -25 callgsubr
          hintmask 11101010
          56 -170 -99 callsubr
          endchar
        </CharString>
        <CharString name="H">
          62 callsubr
          396 hmoveto
          -42 callsubr
          -85 -24 rlineto
          -45 vlineto
          endchar
        </CharString>
        <CharString name="Hbar">
          179 0 45 201 59 85 55 124 45 45 callgsubr
          226 135 vstem
          701 569 rmoveto
          45 -306 -45 vlineto
          86 -23 rlineto
          -101 -226 101 -11 callsubr
          -305 -55 callgsubr
          -101 -81 -55 81 -321 96 callgsubr
          305 -41 callsubr
          177 226 -177 96 callgsubr
          305 -41 callsubr
          321 81 55 -81 101 vlineto
          -40 callgsubr
          -220 -264 rmoveto
          -226 85 226 -85 hlineto
          endchar
        </CharString>
        <CharString name="Hcircumflex">
          62 callsubr
          497 640 -101 callsubr
          -101 -640 rmoveto
          -42 callsubr
          -85 -24 rlineto
          -45 vlineto
          endchar
        </CharString>
        <CharString name="I">
          -182 94 callgsubr
          135 vstem
          255 69 -88 callsubr
          endchar
        </CharString>
        <CharString name="IJ">
          61 callsubr
          255 69 -88 callsubr
          201 -219 -66 callsubr
        </CharString>
        <CharString name="Iacute">
          -182 94 callgsubr
          135 vstem
          87 634 -86 callsubr
          168 -565 -88 callsubr
          endchar
        </CharString>
        <CharString name="Iacute_J.loclNLD">
          61 callsubr
          150 634 -86 callsubr
          363 hmoveto
          228 109 rlineto
          23 vlineto
          -99 34 -156 -131 27 -35 rlineto
          -258 -565 -88 callsubr
          201 -219 -66 callsubr
        </CharString>
        <CharString name="Ibreve">
          9 callsubr
          37 76 hstemhm
          66 59 -5 135 -2 56 121 callgsubr
          184 651 rmoveto
          -78 callsubr
          -70 16 -65 102 vhcurveto
          hintmask 11101000
          71 -582 -88 callsubr
          endchar
        </CharString>
        <CharString name="Icircumflex">
          -182 94 callgsubr
          135 vstem
          316 640 -101 callsubr
          -61 -571 -88 callsubr
          endchar
        </CharString>
        <CharString name="Idieresis">
          9 callsubr
          33 145 hstemhm
          -4 152 -28 135 -26 150 121 callgsubr
          148 719 -103 callsubr
          hintmask 11101000
          -124 -650 -88 callsubr
          endchar
        </CharString>
        <CharString name="Idotaccent">
          9 callsubr
          21 164 hstemhm
          103 168 -151 135 120 callsubr
          271 -25 callgsubr
          hintmask 11001000
          -16 -646 -88 callsubr
          endchar
        </CharString>
        <CharString name="Igrave">
          -182 94 callgsubr
          135 vstem
          292 634 -60 callsubr
          -37 -565 -88 callsubr
          endchar
        </CharString>
        <CharString name="Imacron">
          9 callsubr
          65 79 45 callgsubr
          vstem
          65 758 -33 callsubr
          190 -689 -88 callsubr
          endchar
        </CharString>
        <CharString name="Iogonek">
          -182 -233 62 171 122 callgsubr
          -24 callsubr
          -115 85 hintmask 11110000
          255 69 rmoveto
          477 -11 callsubr
          -305 -45 vlineto
          -48 callsubr
          206 vlineto
          hintmask 11101000
          -56 -36 -46 -54 -59 vvcurveto
          -43 25 -41 78 60 34 38 5 callsubr
          42 32 63 83 20 hvcurveto
          hintmask 11110000
          -41 callsubr
          endchar
        </CharString>
        <CharString name="Itilde">
          9 callsubr
          47 92 -55 92 -24 callsubr
          hintmask 11101000
          349 765 -53 callgsubr
          hintmask 11011000
          -85 callgsubr
          hintmask 11101000
          -79 callsubr
          -94 -696 -88 callsubr
          endchar
        </CharString>
        <CharString name="J">
          86 callsubr
          81 -150 -66 callsubr
        </CharString>
        <CharString name="Jcircumflex">
          86 callsubr
          305 640 -101 callsubr
          -224 -790 -66 callsubr
        </CharString>
        <CharString name="K">
          -19 callgsubr
          endchar
        </CharString>
        <CharString name="Kcommaaccent">
          -19 callgsubr
          -296 -236 -56 callgsubr
        </CharString>
        <CharString name="L">
          -66 0 69 500 45 hstem
          119 135 176 56 23 callgsubr
          endchar
        </CharString>
        <CharString name="Lacute">
          39 callgsubr
          105 634 -86 callsubr
          381 -634 rmoveto
          -56 callsubr
          endchar
        </CharString>
        <CharString name="Lcaron">
          39 callgsubr
          344 775 -88 callgsubr
          142 -775 rmoveto
          -56 callsubr
          endchar
        </CharString>
        <CharString name="Lcommaaccent">
          -66 0 69 500 45 hstem
          119 135 176 56 23 callgsubr
          -222 -236 -56 callgsubr
        </CharString>
        <CharString name="Ldot">
          -66 0 69 273 150 77 45 hstemhm
          119 135 88 151 -63 56 hintmask 10110100
          -6 callsubr
          hintmask 11111000
          7 417 24 callgsubr
        </CharString>
        <CharString name="Lslash">
          39 callgsubr
          486 hmoveto
          162 -56 vlineto
          -26 -93 rlineto
          -150 241 hlineto
          116 70 -32 56 -84 -50 rlineto
          160 100 callsubr
          -241 vlineto
          -91 -54 32 -56 59 35 rlineto
          -161 -69 callgsubr
          451 vlineto
          endchar
        </CharString>
        <CharString name="M">
          257 33 callsubr
          hstem
          112 66 394.5 124 vstem
          256 hmoveto
          -16 callsubr
          14 363 158 -442 74 10 148 435 15 -366 -84 -24 rlineto
          -45 296 -16 callsubr
          -21 477 -16 callgsubr
          -216 vlineto
          -154 -468 -156 468 rlineto
          -208 -45 hlineto
          84 -23 -18 -477 -84 -24 rlineto
          -45 237 vlineto
          endchar
        </CharString>
        <CharString name="N">
          162 0 45 524 45 hstem
          120 69 357 73 3 callsubr
          endchar
        </CharString>
        <CharString name="Nacute">
          38 callsubr
          298 634 -86 callsubr
          163 -20 -94 callsubr
          endchar
        </CharString>
        <CharString name="Nacute.loclPLK">
          38 callsubr
          361 631 -54 callgsubr
          100 -17 -94 callsubr
          endchar
        </CharString>
        <CharString name="Ncaron">
          38 callsubr
          521 775 -88 callgsubr
          -60 -161 -94 callsubr
          endchar
        </CharString>
        <CharString name="Ncommaaccent">
          162 0 45 524 45 hstem
          120 69 357 73 3 callsubr
          -104 -850 -56 callgsubr
        </CharString>
        <CharString name="Ntilde">
          162 33 callsubr
          47 89 callgsubr
          120 69 357 73 hintmask 11101100
          547 -23 callgsubr
          -86 -151 -94 callsubr
          endchar
        </CharString>
        <CharString name="O">
          -14 callgsubr
          333 628 rmoveto
          -106 callsubr
          endchar
        </CharString>
        <CharString name="OE">
          256 0 -22 callsubr
          hstemhm
          30 143 234 132 117 59 callsubr
          hintmask 00000000
          hintmask 11111110
          776 614 rmoveto
          -454 hlineto
          -206 -86 -130 -173 -175 88 -136 205 hvcurveto
          hintmask 11111101
          473 56 callgsubr
          -26 -93 rlineto
          -175 205 98 hlineto
          19 -69 rlineto
          53 191 -53 hlineto
          -17 -66 rlineto
          -100 216 hlineto
          hintmask 11111110
          159 hlineto
          22 -78 rlineto
          56 146 hlineto
          hintmask 11111101
          -369 -68 rmoveto
          -477 vlineto
          -8 -20 -25 -7 -35 hhcurveto
          -131 -23 143 114 105 19 144 125 30 34 -5 -9 26 hvcurveto
          endchar
        </CharString>
        <CharString name="Oacute">
          -14 callgsubr
          294 634 -86 callsubr
          39 -6 rmoveto
          -106 callsubr
          endchar
        </CharString>
        <CharString name="Oacute.loclPLK">
          -14 callgsubr
          333 631 -54 callgsubr
          -3 vmoveto
          -106 callsubr
          endchar
        </CharString>
        <CharString name="Obreve">
          -24 callgsubr
          23 76 hstemhm
          30 145 35 59 128 56 35 121 callsubr
          hintmask 11111110
          328 651 rmoveto
          -78 callsubr
          -70 16 -65 102 vhcurveto
          hintmask 11011110
          5 -23 rmoveto
          -106 callsubr
          endchar
        </CharString>
        <CharString name="Ocircumflex">
          -14 callgsubr
          460 640 -101 callsubr
          -127 -12 rmoveto
          -106 callsubr
          endchar
        </CharString>
        <CharString name="Odieresis">
          -24 callgsubr
          19 145 hstemhm
          30 145 -35 19 callsubr
          -35 121 callsubr
          hintmask 11101100
          292 719 -12 callgsubr
          -190 -91 rmoveto
          -106 callsubr
          endchar
        </CharString>
        <CharString name="Ograve">
          -14 callgsubr
          416 634 -60 callsubr
          -83 -6 rmoveto
          -106 callsubr
          endchar
        </CharString>
        <CharString name="Ohorn">
          -24 callgsubr
          hstemhm
          -17 callsubr
          -50 98 hintmask 00000000
          hintmask 11101000
          681 649 -67 callgsubr
        </CharString>
        <CharString name="Ohungarumlaut">
          -14 callgsubr
          229 631 -62 callsubr
          -57 -3 rmoveto
          -106 callsubr
          endchar
        </CharString>
        <CharString name="Omacron">
          -24 callgsubr
          51 79 hstem
          30 145 36 241 36 145 vstem
          211 758 -33 callsubr
          122 -130 rmoveto
          -106 callsubr
          endchar
        </CharString>
        <CharString name="Oslash">
          106 -9 63 511 63 -2 callsubr
          333 628 -44 callsubr
        </CharString>
        <CharString name="Oslashacute">
          106 -9 63 511 63 -2 callsubr
          224 634 -86 callsubr
          109 -6 -44 callsubr
        </CharString>
        <CharString name="Otilde">
          -24 callgsubr
          33 90 callgsubr
          506 -23 callgsubr
          -173 -137 rmoveto
          -106 callsubr
          endchar
        </CharString>
        <CharString name="P">
          -8 0 45 198 50 258 63 45 callgsubr
          147 137 vstem
          321 614 rmoveto
          -286 -45 hlineto
          85 -23 rlineto
          -477 100 callgsubr
          178 vlineto
          -3 9 42 -1 3 hhcurveto
          109 121 54 120 callgsubr
          -66 -318 rmoveto
          81 callsubr
          -61 -78 -13 -10 1 2 -7 hvcurveto
          endchar
        </CharString>
        <CharString name="Q">
          105 -157 72 643 70 hstem
          30 144 314 144 vstem
          680 -122 rmoveto
          -4 37 rlineto
          -69 hlineto
          -30 -97 43 37 -80 hvcurveto
          167 31 65 138 147 vvcurveto
          173 -83 144 -217 -216 -86 -144 -173 -152 69 -127 154 -32 vhcurveto
          155 -96 rlineto
          -49 79 41 -12 35 hhcurveto
          39 52 19 16 26 hvcurveto
          -506 433 rmoveto
          101 19 146 133 139 23 -146 -101 -104 -16 -144 -136 -141 -21 144 104 vhcurveto
          endchar
        </CharString>
        <CharString name="R">
          7 callsubr
          418 hmoveto
          -84 callsubr
          endchar
        </CharString>
        <CharString name="Racute">
          7 callsubr
          218 634 -86 callsubr
          200 -634 rmoveto
          -84 callsubr
          endchar
        </CharString>
        <CharString name="Rcaron">
          7 callsubr
          453 775 -88 callgsubr
          -35 -775 rmoveto
          -84 callsubr
          endchar
        </CharString>
        <CharString name="Rcommaaccent">
          41 0 51 callgsubr
          -24 callsubr
          24.5 49.5 77 136 hintmask 11110100
          418 hmoveto
          185 45 hlineto
          -64 23 -80 182 -2 26 -58 19 rlinecurve
          84 26 59 51 93 vvcurveto
          87 -65 62 -159 vhcurveto
          -283 -84 callgsubr
          vlineto
          hintmask 11111100
          293 45 hlineto
          hintmask 11110100
          51 callsubr
          33 14 -14 -254 91 hvcurveto
          -122 323 rmoveto
          -41 223 hlineto
          4 11 18 3 19 hhcurveto
          61 42 -33 -72 -74 -39 -51 -71 hvcurveto
          23 -559 rmoveto
          80 188 rlineto
          hintmask 11111100
          -25 24 -90 -20 -9 -185 rlineto
          hintmask 11110100
          44 -7 rlineto
          endchar
        </CharString>
        <CharString name="S">
          -4 callsubr
          -29 callsubr
          endchar
        </CharString>
        <CharString name="Sacute">
          -4 callsubr
          162 634 -86 callsubr
          -121 -189 -100 callsubr
          endchar
        </CharString>
        <CharString name="Sacute.loclPLK">
          -4 callsubr
          243 631 -54 callgsubr
          -202 -186 -100 callsubr
          endchar
        </CharString>
        <CharString name="Scaron">
          -4 callsubr
          401 775 -88 callgsubr
          -360 -330 -100 callsubr
          endchar
        </CharString>
        <CharString name="Scedilla">
          -74 -220 44 168 71 495 70 hstemhm
          41 114 78 96 -2 123 hintmask 11110100
          41 445 rmoveto
          -99 60 -50 48 -21 vhcurveto
          92 -40 rlineto
          58 -26 28 -21 -48 vvcurveto
          -51 -45 -26 -69 -39 -36 9 6 -21 vhcurveto
          -16 87 rlineto
          -56 hlineto
          -15 -143 rlineto
          hintmask 11111000
          48 -19 64 -9 52 -2 -23 -65 rcurveline
          -75 callgsubr
          11 38 rlineto
          hintmask 11110100
          139 8 70 71 108 vvcurveto
          74 -32 54 -84 35 vhcurveto
          -91 38 rlineto
          -53 22 -35 27 49 vvcurveto
          62 52 18 59 21 39 -5 -6 17 vhcurveto
          22 -91 rlineto
          53 hlineto
          11 145 rlineto
          18 -56 -59 9 -60 hhcurveto
          -135 -78 -67 -116 hvcurveto
          endchar
        </CharString>
        <CharString name="Scircumflex">
          -4 callsubr
          371 640 -101 callsubr
          -330 -195 -100 callsubr
          endchar
        </CharString>
        <CharString name="Scommaaccent">
          -4 callsubr
          -29 callsubr
          183 -681 -56 callgsubr
        </CharString>
        <CharString name="T">
          38 callgsubr
          7 614 -46 callsubr
          endchar
        </CharString>
        <CharString name="Tbar">
          -18 0 45 243 55 203 68 hstem
          202 135 112 80 vstem
          449 546 rmoveto
          20 -91 rlineto
          57 hlineto
          6 159 rlineto
          -525 hlineto
          7 -159 rlineto
          55 hlineto
          19 91 rlineto
          114 -203 -163 -55 163 -219 hlineto
          -84 -24 rlineto
          -45 304 -41 callsubr
          219 166 55 -166 203 112 vlineto
          endchar
        </CharString>
        <CharString name="Tcaron">
          38 callgsubr
          423 775 -88 callgsubr
          -416 -161 -46 callsubr
          endchar
        </CharString>
        <CharString name="Thorn">
          -15 0 45 88 50 230 62 94 45 45 callgsubr
          136 126 vstem
          255 475 rmoveto
          71 -11 callsubr
          -305 -45 vlineto
          85 -23 rlineto
          -68 callsubr
          68 vlineto
          -3 9 38 -1 3 hhcurveto
          101 111 50 129 108 -90 55 -121 hvcurveto
          -51 hlineto
          -289 vmoveto
          227 28 vlineto
          74 34 -41 -67 -70 -36 -52 -72 -12 -9 1 2 -7 hvcurveto
          endchar
        </CharString>
        <CharString name="U">
          -13 callgsubr
          vstem
          572 236 -103 callgsubr
          endchar
        </CharString>
        <CharString name="Uacute">
          -13 callgsubr
          vstem
          259 634 -86 callsubr
          313 -398 -103 callgsubr
          endchar
        </CharString>
        <CharString name="Ubreve">
          -21 callsubr
          37 76 88 callgsubr
          -17 59 128 56 45 75 hintmask 00000000
          hintmask 11101110
          327 651 rmoveto
          -78 callsubr
          -70 16 -65 102 vhcurveto
          245 -415 54 callsubr
          vhcurveto
          hintmask 11110010
          -30 callsubr
          hvcurveto
          281 -11 callsubr
          -305 -55 callgsubr
          -281 vlineto
          -148 38 -126 207 vhcurveto
          hintmask 11101110
          -30 callgsubr
          hvcurveto
          endchar
        </CharString>
        <CharString name="Ucircumflex">
          -13 callgsubr
          vstem
          479 640 -101 callsubr
          93 -404 -103 callgsubr
          endchar
        </CharString>
        <CharString name="Udieresis">
          -21 callsubr
          33 145 88 callgsubr
          -64 19 callsubr
          -48 75 hintmask 00000000
          hintmask 11101100
          314 719 -12 callgsubr
          27 -483 -103 callgsubr
          endchar
        </CharString>
        <CharString name="Ugrave">
          -13 callgsubr
          vstem
          426 634 -60 callsubr
          146 -398 -103 callgsubr
          endchar
        </CharString>
        <CharString name="Uhorn">
          -13 callgsubr
          105 98 vstem
          775 678 -93 callgsubr
          endchar
        </CharString>
        <CharString name="Uhungarumlaut">
          -13 callgsubr
          vstem
          248 631 -62 callsubr
          163 -395 -103 callgsubr
          endchar
        </CharString>
        <CharString name="Umacron">
          -21 callsubr
          65 79 88 callgsubr
          15 70 101 70 15 75 hintmask 00000000
          hintmask 11111110
          241 758 -33 callsubr
          hintmask 11110010
          331 -522 rmoveto
          -22 callgsubr
          vlineto
          hintmask 11110110
          -245 -45 hlineto
          hintmask 11110010
          15 callsubr
          -30 callsubr
          vhcurveto
          281 vlineto
          hintmask 11111010
          -16 callgsubr
          vlineto
          hintmask 11110010
          43 callsubr
        </CharString>
        <CharString name="Uogonek">
          104 -233 62 162 72 506 45 hstem
          91 135 49 85 137 75 vstem
          572 236 rmoveto
          310 vlineto
          85 23 rlineto
          45 -245 -100 callgsubr
          7 19 2 4 13 vhcurveto
          -62 -46 -38 -50 -48 -5 callgsubr
          -32 -11 20 25 77 49 36 61 37 hvcurveto
          85 52 17 104 56 vvcurveto
          endchar
        </CharString>
        <CharString name="Uring">
          -21 callsubr
          13 47 97 48 88 callgsubr
          23 74 79 74 21 75 hintmask 00000000
          hintmask 11111111
          476 -43 callgsubr
          hintmask 11011001
          210 -535 -103 callgsubr
          endchar
        </CharString>
        <CharString name="Utilde">
          104 -9 63 515 45 47 92 -55 92 88 callgsubr
          271 75 hintmask 11101100
          529 -23 callgsubr
          43 -529 29 callsubr
          -110 -41 -81 -100 -114 -16 90 121 vhcurveto
          281 -11 callsubr
          -305 -45 vlineto
          55 callgsubr
        </CharString>
        <CharString name="V">
          28 569 45 hstemhm
          380 220 hintmask 00000000
          hintmask 11000000
          380 569 rmoveto
          68 -23 -117 -366 -122 369 65 20 rlineto
          45 -278 -45 vlineto
          71 -24 200 -555 77 13 185 542 71 25 rlineto
          44 -220 -45 vlineto
          endchar
        </CharString>
        <CharString name="W">
          244 569 45 hstemhm
          595 220 hintmask 00000000
          hintmask 11000000
          595 614 -71 callgsubr
        </CharString>
        <CharString name="Wacute">
          74 callsubr
          586 28 callsubr
          9 -129 -71 callgsubr
        </CharString>
        <CharString name="Wcircumflex">
          74 callsubr
          396 717 rmoveto
          129 -77 23 25 -109 135 rlineto
          -85 hlineto
          -110 -135 26 -25 126 77 rlineto
          199 -103 -71 callgsubr
        </CharString>
        <CharString name="Wdieresis">
          244 569 45 33 145 hstem
          204 19 callsubr
          vstem
          282 647 rmoveto
          40 34 30 42 41 -34 32 -40 58 callgsubr
          232 hmoveto
          38 35 30 42 41 -35 32 -38 -42 -35 -32 -41 -42 35 -30 42 hvcurveto
          81 -33 -71 callgsubr
        </CharString>
        <CharString name="Wgrave">
          74 callsubr
          453 29 callgsubr
          142 -55 -71 callgsubr
        </CharString>
        <CharString name="X">
          57 33 callsubr
          hstemhm
          7 227 129 228 120 callsubr
          234 46 rmoveto
          -71 19 114 171 110 -171 -62 -16 rlineto
          -49 282 45 vlineto
          -77 20 -161 259 155 225 67 20 rlineto
          45 -228 -49 vlineto
          72 -16 -108 -160 -103 160 72 16 rlineto
          49 -282 -45 vlineto
          67 -20 155 -246 -162 -238 -67 -20 rlineto
          -45 227 46 vlineto
          endchar
        </CharString>
        <CharString name="Y">
          24 callsubr
          hintmask 00000000
          hintmask 11010000
          358 568 -61 callsubr
        </CharString>
        <CharString name="Y.loclGUA">
          8 callsubr
          hstem
          81 135 254 127 vstem
          199 -81 -89 callgsubr
        </CharString>
        <CharString name="Yacute">
          24 callsubr
          hintmask 11100000
          237 634 -86 callsubr
          hintmask 11010000
          121 -66 -61 callsubr
        </CharString>
        <CharString name="Yacute.loclGUA">
          8 callsubr
          hstem
          81 135 53 32 169 127 vstem
          269 634 -86 callsubr
          -70 -715 -89 callgsubr
        </CharString>
        <CharString name="Ycircumflex">
          24 callsubr
          hintmask 11100000
          434 640 -101 callsubr
          hintmask 11010000
          -76 -72 -61 callsubr
        </CharString>
        <CharString name="Ycircumflex.loclGUA">
          8 callsubr
          hstem
          81 135 254 127 vstem
          470 640 -101 callsubr
          -271 -721 -89 callgsubr
        </CharString>
        <CharString name="Ydieresis">
          18 33 callsubr
          33 145 hstemhm
          119 152 -40 134 -13 150 -144 220 121 callgsubr
          271 719 -103 callsubr
          hintmask 11100010
          -144 -151 rmoveto
          -53 callsubr
          hintmask 11101000
          -57 callsubr
          hintmask 11100010
          16 callsubr
        </CharString>
        <CharString name="Ydieresis.loclGUA">
          8 callsubr
          33 145 hstemhm
          81 135 -62 19 callsubr
          -67 127 hintmask 00000000
          hintmask 11110110
          306 719 -103 callsubr
          -338 -800 rmoveto
          -16 87 rlineto
          -56 hlineto
          -15 -143 rlineto
          -20 54 65 -11 73 hhcurveto
          hintmask 11101001
          208 85 111 131 hvcurveto
          472 -11 callsubr
          -297 -55 callgsubr
          -354 vlineto
          -36 -22 -36 -34 -67 hhcurveto
          -114 -15 93 117 hvcurveto
          214 -11 callsubr
          -305 -55 callgsubr
          -214 vlineto
          -174 38 -107 201 65 52 20 36 34 vhcurveto
          -38 vlineto
          -115 -43 -50 -132 vhcurveto
          hintmask 11110110
          -18 -51 5 10 -28 hvcurveto
          endchar
        </CharString>
        <CharString name="Ygrave">
          24 callsubr
          hintmask 11100000
          396 634 -60 callsubr
          hintmask 11010000
          -38 -66 -61 callsubr
        </CharString>
        <CharString name="Ygrave.loclGUA">
          8 callsubr
          hstem
          81 135 254 127 vstem
          432 634 -60 callsubr
          -233 -715 -89 callgsubr
        </CharString>
        <CharString name="Z">
          65 callgsubr
          472 162 -76 callgsubr
          endchar
        </CharString>
        <CharString name="Zacute">
          65 callgsubr
          180 634 -86 callsubr
          292 -472 -76 callgsubr
          endchar
        </CharString>
        <CharString name="Zacute.loclPLK">
          65 callgsubr
          251 631 -54 callgsubr
          221 -469 -76 callgsubr
          endchar
        </CharString>
        <CharString name="Zcaron">
          65 callgsubr
          418 775 -88 callgsubr
          54 -613 -76 callgsubr
          endchar
        </CharString>
        <CharString name="Zdotaccent">
          -57 85 callgsubr
          21 164 hstemhm
          179 168 120 callsubr
          347 -25 callgsubr
          125 -553 rmoveto
          -56 hlineto
          -38 -93 rlineto
          -199 hlineto
          hintmask 11010000
          301 512 -5 33 rlineto
          -436 hlineto
          10 -146 rlineto
          58 hlineto
          24 78 rlineto
          196 hlineto
          -306 -513 18 -33 rlineto
          425 hlineto
          hintmask 11110000
          8 162 rlineto
          endchar
        </CharString>
        <CharString name="a">
          -3 callgsubr
          233 426 -107 callgsubr
          endchar
        </CharString>
        <CharString name="aacute">
          -3 callgsubr
          177 -80 callgsubr
          56 -132 -107 callgsubr
          endchar
        </CharString>
        <CharString name="abreve">
          -20 callsubr
          72 76 88 callsubr
          -36 57 110 135 -116 57 hintmask 11101100
          245 574 rmoveto
          hintmask 11101010
          103 25 65 70 hvcurveto
          -57 2 rlineto
          -27 -11 -34 -58 -49 -11 34 27 vhcurveto
          -57 -2 rlineto
          hintmask 11101100
          -70 13 -65 102 vhcurveto
          -12 87 callgsubr
          hintmask 11110100
          -101 callgsubr
          -93 callsubr
          hintmask 11101100
          -37 callgsubr
          hintmask 11110100
          -12 callsubr
        </CharString>
        <CharString name="acircumflex">
          -3 callgsubr
          356 559 -95 callgsubr
          -123 -133 -107 callgsubr
          endchar
        </CharString>
        <CharString name="acute">
          110 callgsubr
          27 -80 callgsubr
          endchar
        </CharString>
        <CharString name="acute.case">
          107 callgsubr
          27 634 -86 callsubr
          endchar
        </CharString>
        <CharString name="acute.loclPLK">
          -302 552 183 hstem
          57 164 vstem
          88 552 -54 callgsubr
          endchar
        </CharString>
        <CharString name="acute.loclPLK.case">
          -302 631 183 hstem
          65 164 vstem
          96 631 -54 callgsubr
          endchar
        </CharString>
        <CharString name="acutecomb">
          99 callgsubr
          -228 634 -86 callsubr
          endchar
        </CharString>
        <CharString name="adieresis">
          -20 callsubr
          74 145 88 callsubr
          -106 19 callsubr
          -146 135 hintmask 11101010
          212 648 rmoveto
          41 -34 32 -40 -41 -37 -32 -41 -42 37 -30 41 40 34 30 42 vhcurveto
          hintmask 11101100
          231 hmoveto
          41 -35 32 -38 -42 -35 -32 -41 -42 35 -30 42 38 35 30 42 vhcurveto
          hintmask 11110010
          -210 -222 -107 callgsubr
          endchar
        </CharString>
        <CharString name="ae">
          44 callgsubr
          427 218 -59 callsubr
        </CharString>
        <CharString name="aeacute">
          44 callgsubr
          288 -80 callgsubr
          139 -340 -59 callsubr
        </CharString>
        <CharString name="agrave">
          -3 callgsubr
          324 -48 callgsubr
          -91 -132 -107 callgsubr
          endchar
        </CharString>
        <CharString name="amacron">
          -20 callsubr
          104 79 88 callsubr
          -45 241 -65 55 callsubr
          hintmask 11101000
          121 685 -33 callsubr
          hintmask 11110100
          112 -259 -107 callgsubr
          endchar
        </CharString>
        <CharString name="ampersand">
          42 -6 58 -52 45 253 44 220 48 callgsubr
          42 rmoveto
          hintmask 0111101000000000
          45 -42 rlineto
          179 45 hlineto
          hintmask 1011100010000000
          -79 21 -73 77 26 50 9 48 4 43 rlinecurve
          hintmask 1011100100000000
          76 13 116 callgsubr
          -13 rlineto
          -30 -3 -28 -10 -28 vhcurveto
          -59 66 -47 53 -26 26 rrcurveto
          hintmask 1011011000000000
          82 49 60 35 85 vvcurveto
          77 -73 39 -93 -67 -112 -30 -110 -45 24 -49 41 -55 vhcurveto
          hintmask 1011101000000000
          -68 -36 -65 -51 -99 vvcurveto
          -76 54 -84 145 83 59 20 28 39 vhcurveto
          hintmask 1011011000000000
          -193 463 rmoveto
          36 21 21 35 48 14 -37 -24 -53 -34 -24 -41 -24 vhcurveto
          -23 28 -20 39 38 vvcurveto
          38 -453 rmoveto
          hintmask 1011101000000000
          -71 -36 50 74 43 17 35 33 27 hvcurveto
          54 -71 76 -72 46 -50 rrcurveto
          hintmask 1011011000000000
          -22 -24 -45 -14 -50 hhcurveto
          endchar
        </CharString>
        <CharString name="ampersand.001">
          42 -7 61 -54 45 269 44 236 48 callgsubr
          48 rmoveto
          hintmask 0111101000000000
          45 -48 rlineto
          179 45 hlineto
          hintmask 1011100010000000
          -79 22 -73 81 26 52 9 52 4 47 rlinecurve
          hintmask 1011100100000000
          76 14 116 callgsubr
          -14 rlineto
          -35 -3 -31 -10 -30 vhcurveto
          -59 67 -47 56 -26 33 rrcurveto
          hintmask 1011011000000000
          82 50 60 39 89 vvcurveto
          82 -73 41 -93 -67 -112 -31 -116 -47 24 -53 41 -57 vhcurveto
          hintmask 1011101000000000
          -68 -38 -65 -54 -105 vvcurveto
          -81 54 -86 145 83 59 22 33 39 vhcurveto
          hintmask 1011011000000000
          -193 482 rmoveto
          40 21 24 35 48 14 -41 -28 -56 -34 -27 -41 -26 vhcurveto
          -23 32 -20 41 41 vvcurveto
          38 -476 rmoveto
          hintmask 1011101000000000
          -71 -36 50 80 48 17 36 33 30 hvcurveto
          54 -76 76 -75 46 -53 rrcurveto
          hintmask 1011011000000000
          -25 -24 -45 -15 -50 hhcurveto
          endchar
        </CharString>
        <CharString name="aogonek">
          -29 -233 62 161 81 355 76 88 callsubr
          131 135 -122 85 hintmask 11111000
          233 426 rmoveto
          -71 callsubr
          -101 -21 -27 -71 -53 vvcurveto
          -75 44 -48 74 vhcurveto
          hintmask 11110100
          57 42 22 36 49 hvcurveto
          -35 10 45 -18 46 hhcurveto
          -55 -41 -36 -55 -48 vvcurveto
          -43 25 -41 78 60 34 38 5 callsubr
          42 30 77 85 18 hvcurveto
          hintmask 11111000
          -14 callsubr
          -93 callsubr
          7 20 24 5 28 hhcurveto
          -12 callsubr
        </CharString>
        <CharString name="approxequal">
          -47 154 81 -23 80 16 81 -23 80 hstemhm
          30 450 hintmask 00000000
          hintmask 10011000
          30 341 rmoveto
          26 callgsubr
          hintmask 10011000
          -47 -42 -31 -74 -36 hvcurveto
          hintmask 01101000
          -154 vmoveto
          26 callgsubr
          hintmask 01101000
          -47 -42 -31 -74 -36 hvcurveto
          endchar
        </CharString>
        <CharString name="aring">
          -20 callsubr
          46 52 107 53 88 callsubr
          -35 74 79 74 -61 55 callsubr
          hintmask 11110110
          358 -15 callgsubr
          hintmask 11111001
          -11 -281 -107 callgsubr
          endchar
        </CharString>
        <CharString name="aringacute">
          -20 callsubr
          3 47 97 48 88 callsubr
          -22 74 79 135 hintmask 10110110
          257 505 4 callgsubr
          175 -566 rmoveto
          294 vlineto
          hintmask 11011010
          100 -62 25 -100 -73 -72 -14 -23 -62 vhcurveto
          17 -135 rlineto
          59 hlineto
          22 84 rlineto
          7 20 24 5 28 hhcurveto
          -43 callsubr
          hintmask 10110110
          -78 28 rlineto
          -135 15 rmoveto
          hintmask 10111010
          -12 -17 -34 -15 -28 hhcurveto
          -32 -20 17 39 44 17 28 54 14 hvcurveto
          60 15 rlineto
          hintmask 10110110
          -130 vlineto
          endchar
        </CharString>
        <CharString name="arrowdown">
          1 28 476 hstem
          238.5 93.5 vstem
          61 325 rmoveto
          216 -297 rlineto
          16 hlineto
          202 297 -38 41 -132 -156 14 294 rlineto
          -106 hlineto
          11 -296 -142 157 -41 -40 rlineto
          endchar
        </CharString>
        <CharString name="arrowleft">
          98 callgsubr
          40 476 vstem
          220 308 rmoveto
          157 132 -41 37 -296 -201 rlineto
          -17 vlineto
          296 -215 40 39 -158 144 298 -11 rlineto
          106 vlineto
          -296 -14 rlineto
          endchar
        </CharString>
        <CharString name="arrowright">
          98 callgsubr
          42 476 vstem
          220 44 rmoveto
          298 215 rlineto
          17 vlineto
          -298 201 -40 -37 157 -132 -295 14 rlineto
          -106 vlineto
          296 11 -52 -47 -54 -50 -51 -47 rlinecurve
          39 -39 rlineto
          endchar
        </CharString>
        <CharString name="arrowup">
          1 19 474 hstem
          226.5 93 vstem
          496 199 rmoveto
          -215 294 rlineto
          -19 hlineto
          -200 -294 37 -41 134 156 -13 -295 rlineto
          105 hlineto
          -11 297 142 -157 40 40 rlineto
          endchar
        </CharString>
        <CharString name="asciicircum">
          -105 249 365 hstem
          19 413 vstem
          342 249 rmoveto
          90 hlineto
          -181 365 rlineto
          -50 hlineto
          -182 -365 rlineto
          90 hlineto
          117 240 116 -240 rlineto
          endchar
        </CharString>
        <CharString name="asciitilde">
          -40 195 78 -24 76 hstemhm
          49 422 hintmask 00000000
          hintmask 01100000
          163 249 rmoveto
          66 45 -54 65 hhcurveto
          hintmask 10100000
          50 44 34 69 38 hvcurveto
          -52 27 rlineto
          -39 -25 -16 -13 -35 hhcurveto
          hintmask 01100000
          -53 -60 52 -63 hhcurveto
          -43 -42 -29 -69 -33 hvcurveto
          48 -26 rlineto
          34 25 18 14 23 hhcurveto
          endchar
        </CharString>
        <CharString name="asterisk">
          -205 416 337 hstem
          0 352 vstem
          241 568 rmoveto
          111 18 -30 99 -103 -52 -9 6 16 114 rlineto
          -102 hlineto
          17 -114 -6 -6 -106 52 -29 -99 110 -18 3 -10 -78 -81 85 -61 50 100 rlineto
          11 hlineto
          51 -100 85 61 -79 81 rlineto
          2 3 1 3 4 vvcurveto
          endchar
        </CharString>
        <CharString name="at">
          195 -78 68 64 69 230 61 74 68 hstem
          44 110 67 103 85 107 87 106 vstem
          154 240 rmoveto
          139 63 109 171 147 68 -94 -110 -108 -29 -53 -43 -15 0 19 12 vhcurveto
          173 vlineto
          66 -51 21 -78 -53 -53 -18 -23 -49 vhcurveto
          17 -47 rlineto
          11 30 50 16 34 hhcurveto
          26 20 -9 -33 hvcurveto
          -34 vlineto
          -101 -27 rlineto
          -79 -22 -8 -44 -30 vvcurveto
          -52 33 -47 65 34 36 16 25 27 vhcurveto
          -25 15 30 -17 38 hhcurveto
          103 107 66 77 callgsubr
          -67 150 -265 -240 -93 -158 -154 -170 90 -152 219 77 93 20 43 88 hvcurveto
          -16 52 rlineto
          -31 -90 -77 -16 -59 hhcurveto
          -126 -89 70 180 hvcurveto
          206 -36 rmoveto
          49 12 rlineto
          -76 vlineto
          -9 -19 -17 -6 -15 hhcurveto
          -19 -15 9 27 21 8 12 28 10 hvcurveto
          endchar
        </CharString>
        <CharString name="atilde">
          -20 callsubr
          81 92 -55 92 88 callsubr
          131 135 hintmask 11100100
          419 25 callsubr
          hintmask 11010100
          -64 callsubr
          hintmask 11100100
          -79 callsubr
          -186 -261 -37 callsubr
        </CharString>
        <CharString name="b">
          -6 46 callsubr
          71 135 175 145 vstem
          206 475 rmoveto
          256 -95 callsubr
          -616 vlineto
          -15 51 93 -12 56 hhcurveto
          206 49 134 126 174 -82 78 -134 -39 -42 -13 -14 -23 hvcurveto
          -404 vmoveto
          344 vlineto
          13 21 20 7 29 hhcurveto
          85 20 -67 -120 -124 -22 -66 -84 -31 -26 5 8 -12 hvcurveto
          endchar
        </CharString>
        <CharString name="backslash">
          108 callgsubr
          102 698 rmoveto
          -99 hlineto
          274 -837 rlineto
          96 hlineto
          -271 837 rlineto
          endchar
        </CharString>
        <CharString name="bar">
          -184 -139 837 hstem
          129 115 vstem
          244 698 rmoveto
          -115 -837 115 837 hlineto
          endchar
        </CharString>
        <CharString name="braceleft">
          -222 -193 908 hstem
          53 249 vstem
          105 678 rmoveto
          21 -374 -73 -37 rlineto
          -15 vlineto
          73 -34 -21 -376 186 -35 11 41 -91 37 27 344 -78 31 78 31 -27 344 91 37 -11 43 -186 -37 rlineto
          endchar
        </CharString>
        <CharString name="braceright">
          -222 -193 908 hstem
          33 249 vstem
          209 304 rmoveto
          21 374 -186 37 -11 -43 91 -37 -27 -344 78 -31 -78 -31 27 -344 -91 -37 11 -41 186 35 -21 376 73 34 rlineto
          15 vlineto
          -73 37 rlineto
          endchar
        </CharString>
        <CharString name="bracketleft">
          79 callsubr
          73 116 vstem
          308 -167 rmoveto
          48 vlineto
          -119 9 rlineto
          753 vlineto
          119 8 rlineto
          47 -235 -865 235 vlineto
          endchar
        </CharString>
        <CharString name="bracketright">
          79 callsubr
          145 115 vstem
          26 698 rmoveto
          -47 vlineto
          119 -8 rlineto
          -753 vlineto
          -119 -9 rlineto
          -48 234 865 -234 vlineto
          endchar
        </CharString>
        <CharString name="breve">
          -302 574 76 hstem
          6 115 callgsubr
          vstem
          121 -50 callgsubr
          endchar
        </CharString>
        <CharString name="breve.case">
          -302 651 76 hstem
          6 59 128 56 vstem
          124 651 rmoveto
          -78 callsubr
          -70 16 -65 102 vhcurveto
          endchar
        </CharString>
        <CharString name="brokenbar">
          -152 375 323 hstemhm
          129 115 hintmask 00000000
          hintmask 11000000
          244 698 rmoveto
          -115 -323 115 323 hlineto
          -513 vmoveto
          -115 -324 115 324 hlineto
          endchar
        </CharString>
        <CharString name="bullet">
          -90 204 290 hstem
          87 293 vstem
          380 349 rmoveto
          81 -66 64 -80 -80 -67 -64 -81 -81 67 -64 80 80 66 64 81 vhcurveto
          endchar
        </CharString>
        <CharString name="c">
          22 callgsubr
          255 -10 -81 callgsubr
        </CharString>
        <CharString name="cacute">
          22 callgsubr
          180 -80 callgsubr
          75 -568 -81 callgsubr
        </CharString>
        <CharString name="cacute.loclPLK">
          22 callgsubr
          244 552 -54 callgsubr
          11 -562 -81 callgsubr
        </CharString>
        <CharString name="caron">
          -302 566 166 hstem
          -25 304 vstem
          11 -81 callsubr
          endchar
        </CharString>
        <CharString name="caron.case">
          -302 641 159 hstem
          -25 304 vstem
          279 775 -88 callgsubr
          endchar
        </CharString>
        <CharString name="ccaron">
          22 callgsubr
          133 -81 callsubr
          122 -742 -81 callgsubr
        </CharString>
        <CharString name="ccedilla">
          -109 -220 44 166 75 370 76 callsubr
          89 96 vstem
          433 45 rmoveto
          -8 44 rlineto
          -18 -62 -47 -6 -36 hhcurveto
          -74 -36 32 149 105 15 84 85 22 17 -4 -9 22 hvcurveto
          21 -92 rlineto
          59 hlineto
          20 140 rlineto
          21 -56 -51 11 -69 hhcurveto
          -166 -64 -115 -143 -128 56 -109 140 -15 hvcurveto
          -24 -65 -75 callgsubr
          11 36 64 3 62 23 40 29 rlinecurve
          endchar
        </CharString>
        <CharString name="ccircumflex">
          22 callgsubr
          383 559 -95 callgsubr
          -128 -569 -81 callgsubr
        </CharString>
        <CharString name="cdotaccent">
          -109 -10 75 370 67 64 164 85 callsubr
          10 168 hintmask 00000000
          hintmask 11111000
          348 52 callsubr
          -93 -656 -81 callgsubr
        </CharString>
        <CharString name="cedilla">
          -302 -220 44 hstem
          126 96 vstem
          123 -46 rmoveto
          16 52 rlineto
          -46 hlineto
          -29 -79 -75 callgsubr
          endchar
        </CharString>
        <CharString name="cent">
          -19 33 66 420 182 hstemhm
          54 141 54 67 -50 65 120 callsubr
          249 37 rmoveto
          -123 67 119 vlineto
          61 3 53 23 42 29 -8 40 rcurveline
          -19 -49 -51 -10 -48 hhcurveto
          -90 -31 67 144 118 23 91 92 19 25 -5 -7 14 hvcurveto
          22 -94 rlineto
          69 hlineto
          10 134 rlineto
          hintmask 11101000
          -36 14 -52 13 -50 5 rrcurveto
          122 -65 -122 vlineto
          -129 -16 -83 -103 -152 vvcurveto
          hintmask 11110000
          -140 54 -110 141 -21 vhcurveto
          endchar
        </CharString>
        <CharString name="circumflex">
          -302 559 171 hstem
          -25 304 vstem
          246 559 -95 callgsubr
          endchar
        </CharString>
        <CharString name="circumflex.case">
          -302 640 160 hstem
          -25 304 vstem
          256 640 -101 callsubr
          endchar
        </CharString>
        <CharString name="colon">
          -329 -8 164 156 162 hstem
          30 168 vstem
          198 62 callgsubr
          -320 vmoveto
          27 callgsubr
        </CharString>
        <CharString name="comma">
          -350 -115 256 hstem
          29 145 vstem
          80 -115 rmoveto
          94 228 -29 28 -102 -22 -14 -225 51 -9 rlineto
          endchar
        </CharString>
        <CharString name="commaaccentInverted">
          -387 561 212 hstem
          23 124 vstem
          103 79 callgsubr
          endchar
        </CharString>
        <CharString name="copyright">
          -62 210 33 50 35 250 35 52 33 hstemhm
          5 37 56 80 120 48 -44.5 41.5 113 35 hintmask 1111110110000000
          -1 callsubr
          hintmask 1111111010000000
          306 -141 rmoveto
          -4 66 rlineto
          -33 hlineto
          -13 -45 rlineto
          -5 -17 -10 -1 -13 hhcurveto
          -61 -19 63 61 63 15 63 67 hvcurveto
          hintmask 1111110110000000
          12 10 -2 -4 16 hvcurveto
          7 -50 rlineto
          33 hlineto
          10 76 rlineto
          9 -30 -34 6 -33 hhcurveto
          -110 -43 -72 -89 -87 44 -72 109 hvcurveto
          hintmask 1111111010000000
          39 29 7 13 29 hvcurveto
          endchar
        </CharString>
        <CharString name="currency">
          -19 47 84 238 83 hstem
          66 84 238 84 vstem
          50 79 rmoveto
          47 -50 55 54 rlineto
          -23 33 40 -13 44 hhcurveto
          43 41 12 24 33 hvcurveto
          54 -53 47 50 -53 51 rlineto
          25 33 13 42 43 vvcurveto
          43 -15 40 -23 34 vhcurveto
          53 53 -48 48 -53 -53 rlineto
          24 -33 -41 14 -43 hhcurveto
          -44 -40 -14 -24 -33 hvcurveto
          -52 54 -50 -49 53 -53 rlineto
          -23 -34 -14 -40 -43 vvcurveto
          -43 14 -42 23 -33 vhcurveto
          -53 -52 rlineto
          100 170 rmoveto
          66 53 54 65 66 54 -54 -66 -65 -54 -53 -66 -65 -53 53 65 vhcurveto
          endchar
        </CharString>
        <CharString name="d">
          0 -10 81 364 76 callsubr
          174 135 vstem
          347 48 -72 callgsubr
          -91 23 -27 callsubr
          endchar
        </CharString>
        <CharString name="dagger">
          -101 0 649 hstem
          174.5 106 vstem
          292 hmoveto
          -23 440 32 callgsubr
          -440 rlineto
          130 hlineto
          endchar
        </CharString>
        <CharString name="daggerdbl">
          -101 0 649 hstem
          51 353 vstem
          162 325 rmoveto
          23 -115 -134 20 rlineto
          -108 vlineto
          133 18 -17 -140 rlineto
          121 hlineto
          -20 140 134 -18 rlineto
          108 vlineto
          -135 -20 25 115 -23 115 32 callgsubr
          -115 rlineto
          endchar
        </CharString>
        <CharString name="dcaron">
          62 -10 81 364 67 hstem
          29 145 174 135 vstem
          521 1 callsubr
          -170 -708 -72 callgsubr
          -91 23 -27 callsubr
          endchar
        </CharString>
        <CharString name="dcroat">
          11 -10 81 364 67 61 60 hstem
          29 145 174 135 vstem
          483 83 rmoveto
          480 57 60 -57 108 -70 callsubr
          -19 -94 callgsubr
          -30 -161 -60 161 -88 vlineto
          3 -4 -48 24 -55 hhcurveto
          -134 -78 -98 -160 -133 53 -121 112 63 52 24 34 42 hvcurveto
          -35 11 44 -18 44 hhcurveto
          33 32 5 12 46 hvcurveto
          -14 callsubr
          -135 22 rmoveto
          -16 -15 -37 -18 -36 hhcurveto
          -62 -24 72 103 115 31 74 67 24 34 -11 -16 18 hvcurveto
          -303 vlineto
          endchar
        </CharString>
        <CharString name="degree">
          -114 402 51 214 52 hstem
          63 67 183 67 vstem
          380 559 rmoveto
          87 -71 73 -88 -86 -72 -73 -87 -88 72 -69 86 88 71 69 88 vhcurveto
          -159 108 rmoveto
          58 34 -48 -60 -60 -34 -46 -58 -58 -33 46 60 60 33 48 58 hvcurveto
          endchar
        </CharString>
        <CharString name="dieresis">
          -302 576 145 hstem
          -64 19 callsubr
          vstem
          88 648 -103 callsubr
          endchar
        </CharString>
        <CharString name="dieresis.case">
          -302 647 145 hstem
          -64 19 callsubr
          vstem
          88 719 -103 callsubr
          endchar
        </CharString>
        <CharString name="divide">
          -47 87 127 48 79 48 127 hstem
          193 127 vstem
          256 516 66 callgsubr
          206 -175 49 callsubr
          -206 -127 66 callgsubr
          endchar
        </CharString>
        <CharString name="dollar">
          -19 2 60 495 161 hstemhm
          68 111 46 66 -51 68 50 116 hintmask 11110100
          225 2 rmoveto
          -120 66 123 vlineto
          122 13 61 67 85 vvcurveto
          89 -38 48 -66 28 vhcurveto
          -103 44 rlineto
          -52 22 -36 23 50 vvcurveto
          66 61 17 52 22 39 -5 -5 16 vhcurveto
          22 -94 rlineto
          52 hlineto
          10 134 rlineto
          hintmask 11101100
          -47 15 -49 12 -49 3 rrcurveto
          101 -68 -103 vlineto
          -109 -12 -63 -64 -100 vvcurveto
          -94 44 -41 57 -24 vhcurveto
          101 -43 rlineto
          60 -25 28 -19 -45 vvcurveto
          -55 -45 -31 -73 -38 -37 9 6 -22 vhcurveto
          -15 82 rlineto
          -55 hlineto
          -14 -127 rlineto
          hintmask 11110100
          50 -18 62 -10 54 -2 rrcurveto
          endchar
        </CharString>
        <CharString name="dotaccent">
          -302 566 164 hstem
          43 168 vstem
          211 -58 callsubr
          endchar
        </CharString>
        <CharString name="dotaccent.case">
          -302 635 164 hstem
          43 168 vstem
          211 -25 callgsubr
          endchar
        </CharString>
        <CharString name="dotbelowcomb">
          -557 -8 callgsubr
          hstem
          -212 168 vstem
          -44 -128 -104 callsubr
          endchar
        </CharString>
        <CharString name="dotlessi">
          30 callgsubr
          316 50 -91 callsubr
          endchar
        </CharString>
        <CharString name="e">
          -76 -10 -72 callsubr
          16 callgsubr
          170 220 -106 callgsubr
          endchar
        </CharString>
        <CharString name="eacute">
          -76 -10 -72 callsubr
          16 callgsubr
          173 -80 callgsubr
          -3 -338 -106 callgsubr
          endchar
        </CharString>
        <CharString name="ebreve">
          -76 -10 -72 callsubr
          72 71 callsubr
          234 -50 callgsubr
          hintmask 11111001
          -64 -354 -106 callgsubr
          endchar
        </CharString>
        <CharString name="ecaron">
          -76 -10 -72 callsubr
          16 callgsubr
          134 -81 callsubr
          36 -512 -106 callgsubr
          endchar
        </CharString>
        <CharString name="ecircumflex">
          -76 -10 -72 callsubr
          16 callgsubr
          368 559 -95 callgsubr
          -198 -339 -106 callgsubr
          endchar
        </CharString>
        <CharString name="edieresis">
          -76 -10 -72 callsubr
          74 145 85 callsubr
          -117 19 callsubr
          -116 136 hintmask 00000000
          hintmask 11110110
          205 648 -103 callsubr
          hintmask 11111001
          -266 -428 -106 callgsubr
          endchar
        </CharString>
        <CharString name="edotaccent">
          -76 -10 -72 callsubr
          64 164 85 callsubr
          -5 168 -13 136 121 callgsubr
          333 -58 callsubr
          hintmask 11101010
          -163 -426 -106 callgsubr
          endchar
        </CharString>
        <CharString name="egrave">
          -76 -10 -72 callsubr
          16 callgsubr
          333 -48 callgsubr
          -163 -338 -106 callgsubr
          endchar
        </CharString>
        <CharString name="eight">
          -51 callgsubr
        </CharString>
        <CharString name="eight.dnom">
          -6 14 callgsubr
          96 -82 callgsubr
        </CharString>
        <CharString name="eight.numr">
          168 14 callgsubr
          270 -82 callgsubr
        </CharString>
        <CharString name="eight.osf">
          -51 callgsubr
        </CharString>
        <CharString name="ellipsis">
          6 -8 146 hstem
          37 146 42 146 42 145 vstem
          37 62 rmoveto
          -40 33 -30 40 40 33 30 40 43 -33 33 -40 -40 -33 108 callsubr
          34 30 40 43 -34 33 -41 -39 -32 108 callsubr
          33 30 40 43 -33 33 -41 -39 -32 -33 -43 vhcurveto
          endchar
        </CharString>
        <CharString name="emacron">
          -76 -10 -72 callsubr
          104 79 85 callsubr
          -48 241 -43 136 121 callgsubr
          122 685 -33 callsubr
          hintmask 11111010
          48 -465 -106 callgsubr
          endchar
        </CharString>
        <CharString name="emdash">
          277 203 74 hstem
          0 833 vstem
          833 203 rmoveto
          74 -833 -74 833 vlineto
          endchar
        </CharString>
        <CharString name="endash">
          163 203 74 hstem
          0 720 vstem
          720 203 rmoveto
          74 -720 -74 720 vlineto
          endchar
        </CharString>
        <CharString name="eng">
          55 115 callsubr
          -13 callsubr
          414 502 rmoveto
          -63 -87 -28 -12 -26 hvcurveto
          40 -70 callsubr
          -37 rlineto
          -50 vlineto
          78 -10 rlineto
          -335 vlineto
          -78 -25 rlineto
          -45 45 callsubr
          7 25 27 5 44 hhcurveto
          55 14 -8 -49 hvcurveto
          -383 vlineto
          -33 -20 -40 -53 vhcurveto
          -45 hlineto
          -6 -47 rlineto
          -20 42 45 -9 23 hhcurveto
          71 78 54 170 hvcurveto
          342 vlineto
          77 -59 27 -65 vhcurveto
          endchar
        </CharString>
        <CharString name="eogonek">
          -76 -233 62 161 -72 callsubr
          85 callsubr
          64 85 1 136 hintmask 11111010
          170 220 rmoveto
          65 callsubr
          3 17 1 37 12 vvcurveto
          132 -61 60 -140 -122 -108 -61 -197 -133 50 -121 190 vhcurveto
          hintmask 11111100
          21 20 2 3 18 hvcurveto
          -46 -34 -44 -55 -54 vvcurveto
          -43 25 -42 78 59 35 38 5 callsubr
          87 82 46 50 37 hvcurveto
          -8 44 rlineto
          -14 -50 -50 -10 -38 hhcurveto
          hintmask 11111010
          -86 -49 32 123 hvcurveto
          150 110 63 callgsubr
        </CharString>
        <CharString name="equal">
          -47 173 79 98 79 hstem
          40 414 vstem
          40 429 rmoveto
          -79 414 79 -414 vlineto
          -177 vmoveto
          -79 414 79 -414 vlineto
          endchar
        </CharString>
        <CharString name="estimated">
          142 -12 47 254 45 242 43 hstem
          28 137 354 140 vstem
          170 289 rmoveto
          489 14 hlineto
          176 -140 140 -176 -174 -141 -140 -176 -174 141 -141 174 103 108 53 78 49 vhcurveto
          -67 hlineto
          -51 -50 -60 -33 -82 hhcurveto
          -75 -47 29 44 -50 hvcurveto
          -3 4 -4 7 8 vvcurveto
          159 vlineto
          2 3 1 2 vhcurveto
          349 193 rmoveto
          -144 vlineto
          -2 -1 -2 -2 vhcurveto
          -346 hlineto
          -2 -3 2 2 hvcurveto
          141 vlineto
          8 4 7 4 6 vhcurveto
          38 31 58 38 82 hhcurveto
          89 44 -30 -44 35 hvcurveto
          4 -5 3 -7 -8 vvcurveto
          endchar
        </CharString>
        <CharString name="eth">
          -19 46 callsubr
          25 145 204 146 vstem
          267 636 rmoveto
          -101 -58 30 -52 108 62 19 -27 17 -32 15 -37 rlinecurve
          6 -25 -29 4 -31 hhcurveto
          -177 -68 -115 -143 -138 70 -116 175 199 51 144 143 hvcurveto
          -1 170 -56 116 -67 78 94 54 rcurveline
          -31 52 -107 -62 -51 46 -52 26 -33 11 rlinecurve
          -36 -49 22 -18 33 -27 32 -38 rlinecurve
          107 -390 rmoveto
          30 callsubr
          -85 -19 82 106 109 18 80 80 86 20 -80 -109 vhcurveto
          endchar
        </CharString>
        <CharString name="exclam">
          -318 -8 137 hstem
          51 136 vstem
          162 188 rmoveto
          30 426 rlineto
          -147 hlineto
          30 -426 rlineto
          87 hlineto
          -111 -130 rmoveto
          -38 28 -28 40 38 30 28 38 38 -30 33 -38 -40 -28 -33 -38 vhcurveto
          endchar
        </CharString>
        <CharString name="exclamdown">
          -318 367 135 hstem
          52 136 vstem
          52 435 rmoveto
          -38 28 -30 40 38 30 30 38 38 -30 29 -38 -40 -28 -29 -38 vhcurveto
          141 -556 rmoveto
          -30 428 rlineto
          -87 hlineto
          -30 -428 rlineto
          147 hlineto
          endchar
        </CharString>
        <CharString name="f">
          -171 0 50 367.5 47 callgsubr
          48 180 83 hstemhm
          108 135 hintmask 11011000
          30 -33 callgsubr
          hintmask 10111000
          41 callgsubr
          hintmask 11011000
          -50 vlineto
          endchar
        </CharString>
        <CharString name="f_f">
          215 0 50 367.5 74.5 156 83 hstem
          108 135 251 135 vstem
          30 -33 callgsubr
          41 callgsubr
          -50 vlineto
          386 -33 callgsubr
          41 callgsubr
          -50 vlineto
          endchar
        </CharString>
        <CharString name="fi">
          101 0 45 375 48 -46 74.5 151.5 83 hstemhm
          108 135 179 135 hintmask 10111100
          635 50 rmoveto
          -78 20 rlineto
          432 vlineto
          -316 -11 rlineto
          30 vlineto
          71 18 56 90 19 24 -3 -3 17 vhcurveto
          18 -80 rlineto
          75 hlineto
          19 145 rlineto
          11 -16 -79 13 -48 hhcurveto
          -171 -99 -83 -141 hvcurveto
          hintmask 11011100
          -83 -39 rlineto
          -48 83 -350 118 callgsubr
          25 rlineto
          hintmask 10111100
          352 179 -352 vlineto
          70 callsubr
          273 50 vlineto
          endchar
        </CharString>
        <CharString name="five">
          -47 -13 76 250 73 148 80 hstem
          327 135 vstem
          431 614 rmoveto
          -338 hlineto
          -27 -271 30 -30 rlineto
          152 79 -31 -104 -74 -54 -41 -75 -33 -33 7 27 -75 hvcurveto
          -23 -73 rlineto
          -21 57 68 -16 68 hhcurveto
          157 78 79 116 97 -29 99 -266 8 hvcurveto
          11 148 rlineto
          253 80 hlineto
          endchar
        </CharString>
        <CharString name="five.dnom">
          -11 17 callsubr
          430 -60 callgsubr
          9 106 rlineto
          173 57 hlineto
          endchar
        </CharString>
        <CharString name="five.numr">
          162 17 callsubr
          603 -60 callgsubr
          9 106 rlineto
          173 57 hlineto
          endchar
        </CharString>
        <CharString name="five.osf">
          -47 -100 71 477 80 hstem
          321 136 vstem
          167 300 rmoveto
          11 148 rlineto
          253 80 -338 hlineto
          -27 -271 30 -30 rlineto
          110 -1 115 -4 -117 vvcurveto
          -88 -64 -46 -100 -26 -30 3 6 -45 vhcurveto
          -5 -65 rlineto
          -12 50 55 -3 35 hhcurveto
          178 88 80 124 124 -87 72 -203 hvcurveto
          endchar
        </CharString>
        <CharString name="fiveeighths">
          465 -6 52 116 57 168 53 106 57 hstemhm
          73 87.5 86.5 113 290 100 -91 104 91 104 -103 113 hintmask 1111111001000000
          426 -54 callsubr
          -88 673 -60 callgsubr
          9 106 rlineto
          173 57 hlineto
          312 -507 -35 callgsubr
          hintmask 1111110110000000
          -47 callsubr
          hintmask 1111111001000000
          -60 -34 -21 -37 -49 vvcurveto
          hintmask 1111110110000000
          -57 callgsubr
          hintmask 1111111001000000
          -63 callsubr
        </CharString>
        <CharString name="fl">
          89 0 45 372.5 47 callgsubr
          48 185 83 hstemhm
          108 135 177 135 hintmask 11011100
          555 70 rmoveto
          661 -44 vlineto
          -19 -20 rlineto
          11 -22 -54 14 -62 hhcurveto
          -147 -99 -102 -127 hvcurveto
          hintmask 10111100
          -83 -39 rlineto
          -48 83 -350 118 callgsubr
          26 rlineto
          hintmask 11011100
          351 vlineto
          121 -9 rlineto
          79 -123 29 vlineto
          83 17 49 79 55 20 -17 -3 8 vhcurveto
          -559 vlineto
          -67 -29 rlineto
          -45 280 46 vlineto
          -78 24 rlineto
          endchar
        </CharString>
        <CharString name="florin">
          -112 -171 63 440 54 173 59 hstem
          -47 506 vstem
          388 553 rmoveto
          11 -64 rlineto
          50 hlineto
          10 108 rlineto
          12 -39 -43 9 -45 hhcurveto
          -110 -68 -69 -163 -19 hvcurveto
          -86 hlineto
          -8 -54 rlineto
          87 hlineto
          -43 -340 rlineto
          -70 -9 -33 -30 -26 hhcurveto
          -24 -35 1 0 hvcurveto
          -5 -40 rlineto
          -14 32 40 -10 26 hhcurveto
          69 62 40 94 13 hvcurveto
          51 369 rlineto
          134 hlineto
          7 54 rlineto
          -134 hlineto
          112 13 20 61 60 hhcurveto
          18 9 -1 -5 15 hvcurveto
          endchar
        </CharString>
        <CharString name="four">
          -47 135 70 hstem
          280 123 vstem
          280 hmoveto
          123 135 73 callsubr
          -135 hlineto
          -172 205 93 callsubr
        </CharString>
        <CharString name="four.dnom">
          79 67 callsubr
          hmoveto
          -61 callgsubr
        </CharString>
        <CharString name="four.numr">
          251 67 callsubr
          172 rmoveto
          -61 callgsubr
        </CharString>
        <CharString name="four.osf">
          -47 54 70 hstem
          280 123 vstem
          280 -90 rmoveto
          123 144 73 callsubr
          -144 hlineto
          -172 214 93 callsubr
        </CharString>
        <CharString name="fraction">
          -307 -70 717 hstem
          2 316 vstem
          85 -54 callsubr
          endchar
        </CharString>
        <CharString name="g">
          -27 callgsubr
          326 103 -96 callgsubr
        </CharString>
        <CharString name="g_tilde.loclGUA">
          10 callsubr
          78 89 callgsubr
          19 127 -94 133 -130 115 151 129 -68 126 hintmask 1111100100100000
          425 25 callsubr
          hintmask 1111010100100000
          -64 callsubr
          hintmask 1111100100100000
          -79 callsubr
          -91 -584 rmoveto
          hintmask 1111100011000000
          -135 hlineto
          -25 -4 17 16 6 4 14 5 12 hvcurveto
          -4 12 33 -4 26 hhcurveto
          144 56 76 99 33 -15 40 -21 22 hvcurveto
          94 86 hlineto
          -135 -40 rlineto
          16 -29 -39 13 -55 hhcurveto
          hintmask 1111100100100000
          -129 -69 -72 -98 -60 19 -57 53 -31 hvcurveto
          hintmask 1111100010100000
          -33 -32 -36 -36 -39 vvcurveto
          -23 13 -31 29 -9 vhcurveto
          hintmask 1111101000100000
          74 callgsubr
          hintmask 1111100100100000
          87 -70 29 -104 vhcurveto
          hintmask 1111100101000000
          56 callsubr
          hintmask 1111101000100000
          36 callsubr
        </CharString>
        <CharString name="gbreve">
          -27 -2 callgsubr
          69 76 hstemhm
          21 127 -94 133 -130 115 -43 115 callgsubr
          -49 129 -68 126 hintmask 0000000000000000
          hintmask 1111100011010000
          244 -50 callgsubr
          hintmask 1111100100010000
          92 -471 rmoveto
          -135 hlineto
          -25 -4 17 16 6 4 14 5 12 hvcurveto
          -4 12 33 -4 26 hhcurveto
          hintmask 1111101000100000
          144 56 76 99 33 -15 40 -21 22 hvcurveto
          94 86 hlineto
          -135 -40 rlineto
          16 -29 -39 13 -55 hhcurveto
          -129 -69 -72 -98 -60 19 -57 53 -31 hvcurveto
          hintmask 1111100100010000
          -33 -32 -36 -36 -39 vvcurveto
          -23 13 -31 29 -9 vhcurveto
          hintmask 1111110000010000
          74 callgsubr
          hintmask 1111100100010000
          87 -70 29 -104 vhcurveto
          hintmask 1111101000100000
          56 callsubr
          hintmask 1111110000010000
          36 callsubr
        </CharString>
        <CharString name="gcaron">
          -27 callgsubr
          142 -81 callsubr
          184 -629 -96 callgsubr
        </CharString>
        <CharString name="gcircumflex">
          -27 callgsubr
          377 559 -95 callgsubr
          -51 -456 -96 callgsubr
        </CharString>
        <CharString name="gcommaaccent">
          -27 -2 callgsubr
          hstemhm
          21 127 -94 133 -130 115 151 129 -68 126 hintmask 1111010010000000
          274 79 callgsubr
          62 -670 rmoveto
          hintmask 1111001100000000
          -135 hlineto
          -25 -4 17 16 6 4 14 5 12 hvcurveto
          -4 12 33 -4 26 hhcurveto
          144 56 76 99 33 -15 40 -21 22 hvcurveto
          94 86 hlineto
          -135 -40 rlineto
          16 -29 -39 13 -55 hhcurveto
          hintmask 1111010010000000
          -129 -69 -72 -98 -60 19 -57 53 -31 hvcurveto
          hintmask 1111001010000000
          -33 -32 -36 -36 -39 vvcurveto
          -23 13 -31 29 -9 vhcurveto
          hintmask 1111100010000000
          74 callgsubr
          hintmask 1111010010000000
          87 -70 29 -104 vhcurveto
          hintmask 1111010100000000
          -13 -34 callgsubr
          144 47 callsubr
          -53 -34 -96 -66 -21 22 32 27 13 18 18 23 hvcurveto
          endchar
        </CharString>
        <CharString name="gdotaccent">
          10 callsubr
          61 164 hstemhm
          25 127 -100 133 -130 115 4 168 -21 129 -76 126 hintmask 0000000000000000
          hintmask 1111100010100000
          342 -58 callsubr
          -16 -543 rmoveto
          hintmask 1111100101000000
          -127 hlineto
          -25 -4 17 16 6 4 14 5 12 hvcurveto
          -4 12 33 -4 26 hhcurveto
          144 56 76 99 33 -15 40 -21 22 hvcurveto
          94 86 hlineto
          -135 -40 rlineto
          16 -29 -39 13 -55 hhcurveto
          hintmask 1111101000100000
          -129 -69 -72 -98 -60 19 -57 53 -31 hvcurveto
          hintmask 1111100100100000
          -33 -32 -36 -36 -39 vvcurveto
          -23 13 -31 29 -9 vhcurveto
          hintmask 1111110000100000
          -59 -33 -13 -32 -31 vvcurveto
          -47 32 76 callgsubr
          86 83 81 vhcurveto
          hintmask 1111100010100000
          87 -70 29 -104 vhcurveto
          hintmask 1111101001000000
          -5 -47 callgsubr
          hintmask 1111110000100000
          -144 -323 rmoveto
          136 47 callsubr
          -41 -34 -96 -66 -19 22 32 27 7 70 callgsubr
        </CharString>
        <CharString name="germandbls">
          81 -10 60 -50 50 370 48 166 75 hstemhm
          108 133 69 123 -27 125 -30 122 hintmask 10111010
          25 420 rmoveto
          83 hlineto
          hintmask 01111010
          113 callgsubr
          211 521 vlineto
          65 20 48 72 71 2 -66 -13 vhcurveto
          -126 -96 26 -99 vvcurveto
          hintmask 10111101
          -107 191 -58 -88 vvcurveto
          -31 -13 -22 -47 -25 -17 3 7 -16 vhcurveto
          -19 85 rlineto
          -52 hlineto
          -11 -130 rlineto
          -16 47 31 -9 62 hhcurveto
          117 65 53 89 hvcurveto
          132 -190 59 63 73 98 11 90 vvcurveto
          hintmask 10111010
          77 -69 72 -125 -147 -82 -92 -110 vhcurveto
          -83 -39 rlineto
          -48 vlineto
          endchar
        </CharString>
        <CharString name="grave">
          110 callgsubr
          232 -48 callgsubr
          endchar
        </CharString>
        <CharString name="grave.case">
          107 callgsubr
          232 634 -60 callsubr
          endchar
        </CharString>
        <CharString name="gravecomb">
          99 callgsubr
          -23 634 -60 callsubr
          endchar
        </CharString>
        <CharString name="greater">
          -47 97 408 hstem
          40 424 vstem
          40 435 rmoveto
          266 -134 -266 -134 42 -70 382 204 -382 204 -42 -70 rlineto
          endchar
        </CharString>
        <CharString name="greaterequal">
          -47 0 79 hstem
          43 424 vstem
          43 428 rmoveto
          266 -127 -266 -127 40 -67 384 194 -384 194 -40 -67 rlineto
          418 -349 49 callsubr
          endchar
        </CharString>
        <CharString name="guillemotleft">
          -142 61 357 hstem
          16 365 vstem
          16 239 rmoveto
          141 -178 44 callsubr
          rlineto
          312 -178 rmoveto
          44 callsubr
          141 -178 rlineto
          endchar
        </CharString>
        <CharString name="guillemotright">
          -142 61 357 hstem
          35 364 vstem
          229 239 rmoveto
          -142 179 118 callsubr
          142 178 rlineto
          30 179 rmoveto
          -52 -34 76 -145 -76 -143 52 -35 140 178 -140 179 rlineto
          endchar
        </CharString>
        <CharString name="guilsinglleft">
          -313 61 357 hstem
          16 194 vstem
          16 239 rmoveto
          141 -178 44 callsubr
          rlineto
          endchar
        </CharString>
        <CharString name="guilsinglright">
          -313 61 357 hstem
          35 193 vstem
          87 418 rmoveto
          118 callsubr
          141 178 -141 179 rlineto
          endchar
        </CharString>
        <CharString name="h">
          82 callgsubr
          610 hmoveto
          -45 callsubr
          70 callsubr
          274 vlineto
          endchar
        </CharString>
        <CharString name="hbar">
          66 0 71 callgsubr
          61 60 hstem
          96 135 165 135 vstem
          531 70 rmoveto
          328 vlineto
          75 -57 29 -65 -59 -85 -24 -16 -34 vhcurveto
          101 140 60 -140 108 -70 callsubr
          -19 -94 callgsubr
          -30 -78 -60 78 -493 -49 callsubr
          45 callsubr
          6 21 28 6 51 hhcurveto
          54 11 72 callsubr
          endchar
        </CharString>
        <CharString name="hcircumflex">
          82 callgsubr
          293 736 -101 callsubr
          317 -736 rmoveto
          -45 callsubr
          70 callsubr
          274 vlineto
          endchar
        </CharString>
        <CharString name="hookabovecomb">
          -557 545 44 52 35 hstem
          -110 74 vstem
          -36 622 rmoveto
          40 callgsubr
          7 27 rlineto
          1 10 10 1 8 hhcurveto
          26 12 -8 -14 -17 -16 -13 -50 hvcurveto
          4 -44 rlineto
          54 hlineto
          6 23 rlineto
          51 8 25 18 28 vvcurveto
          endchar
        </CharString>
        <CharString name="hungarumlaut">
          -302 552 183 hstem
          -45 345 vstem
          -14 552 -62 callsubr
          endchar
        </CharString>
        <CharString name="hungarumlaut.case">
          -302 631 183 hstem
          -45 345 vstem
          -14 631 -62 callsubr
          endchar
        </CharString>
        <CharString name="hyphen">
          -275 203 74 119 callsubr
          74 -265 -74 265 vlineto
          endchar
        </CharString>
        <CharString name="i">
          -228 0 48 callsubr
          hintmask 00000000
          hintmask 11100000
          252 52 callsubr
          64 -596 -91 callsubr
          endchar
        </CharString>
        <CharString name="i.loclTRK">
          -228 0 102 callgsubr
          81 168 -146 55 callsubr
          hintmask 11100000
          249 52 callsubr
          67 -596 -91 callsubr
          endchar
        </CharString>
        <CharString name="iacute">
          30 callgsubr
          62 -80 callgsubr
          254 -508 -91 callsubr
          endchar
        </CharString>
        <CharString name="iacute_j.loclNLD">
          102 115 callsubr
          50 hstem
          103 135 201 135 vstem
          84 -80 callgsubr
          329 hmoveto
          228 109 rlineto
          23 vlineto
          -99 40 -156 -137 27 -35 rlineto
          -97 -508 -91 callsubr
          45 413 -82 callsubr
        </CharString>
        <CharString name="ibreve">
          87 callsubr
          524 76 hstemhm
          43 57 3 135 -9 57 hintmask 00000000
          hintmask 11101000
          158 -50 callgsubr
          hintmask 11010000
          158 -524 -91 callsubr
          endchar
        </CharString>
        <CharString name="icircumflex">
          30 callgsubr
          267 559 -95 callgsubr
          49 -509 -91 callsubr
          endchar
        </CharString>
        <CharString name="idieresis">
          87 callsubr
          526 145 hstemhm
          -37 152 -12 135 -42 150 hintmask 00000000
          hintmask 11101000
          115 648 -103 callsubr
          hintmask 11010000
          -30 -598 -91 callsubr
          endchar
        </CharString>
        <CharString name="igrave">
          30 callgsubr
          232 -48 callgsubr
          84 -508 -91 callsubr
          endchar
        </CharString>
        <CharString name="ij">
          102 115 callsubr
          48 callsubr
          178 49 callgsubr
          hintmask 11110100
          252 -58 callsubr
          333 hmoveto
          -11 callgsubr
          hintmask 11101010
          -269 -596 -91 callsubr
          45 413 -82 callsubr
        </CharString>
        <CharString name="imacron">
          87 callsubr
          556 79 hstemhm
          21 241 -159 55 callsubr
          hintmask 11100000
          21 685 -33 callsubr
          hintmask 11010000
          295 -635 -91 callsubr
          endchar
        </CharString>
        <CharString name="infinity">
          155 151 72 149 72 hstem
          39 80 475 77 vstem
          356 349 rmoveto
          39 -30 -54 56 -79 hhcurveto
          -127 -27 -86 -59 -61 27 -87 127 79 54 57 39 30 hvcurveto
          -39 30 54 -57 83 hhcurveto
          120 28 83 65 63 -28 82 -120 -83 -54 -56 -39 -30 hvcurveto
          -237 -50 rmoveto
          28 10 45 62 58 44 -49 -24 22 vhcurveto
          -27 -23 -42 -49 -59 hhcurveto
          -62 -10 46 30 hvcurveto
          475 hmoveto
          -30 -10 -46 -64 -60 -43 49 27 -21 vhcurveto
          24 21 43 49 60 hhcurveto
          64 10 -45 -28 hvcurveto
          endchar
        </CharString>
        <CharString name="integral">
          -118 -134 56 723 56 hstem
          164 105 vstem
          164 568 rmoveto
          -587 vlineto
          -44 -23 -15 -21 -12 -12 3 6 -7 vhcurveto
          -12 65 rlineto
          -51 hlineto
          -16 -106 rlineto
          -14 18 65 -10 25 hhcurveto
          79 72 44 89 hvcurveto
          587 vlineto
          44 23 15 21 12 12 -3 -6 7 vhcurveto
          12 -65 rlineto
          51 hlineto
          16 106 rlineto
          14 -18 -65 10 -25 hhcurveto
          -79 -72 -44 -89 hvcurveto
          endchar
        </CharString>
        <CharString name="iogonek">
          -228 -233 62 171 48 callsubr
          -122 85 120 callsubr
          252 -58 callsubr
          hintmask 11101000
          64 -596 rmoveto
          -78 20 rlineto
          -80 callsubr
          195 vlineto
          hintmask 11100100
          -57 -36 -47 -54 -59 vvcurveto
          -43 25 -41 78 60 34 38 5 callsubr
          42 32 63 83 20 hvcurveto
          hintmask 11101000
          50 vlineto
          endchar
        </CharString>
        <CharString name="itilde">
          87 callsubr
          505 92 -55 92 83 callgsubr
          329 659 -53 callgsubr
          hintmask 10110000
          -64 callsubr
          hintmask 11010000
          -79 callsubr
          -13 -609 -91 callsubr
          endchar
        </CharString>
        <CharString name="j">
          -227 -168 76 658 164 hstemhm
          87 49 callgsubr
          hintmask 11100000
          256 646 rmoveto
          -11 callgsubr
          hintmask 11010000
          -224 -183 -82 callsubr
        </CharString>
        <CharString name="jcircumflex">
          109 callsubr
          284 559 -95 callgsubr
          -252 -96 -82 callsubr
        </CharString>
        <CharString name="k">
          27 0 52 390 69 callsubr
          291 hmoveto
          52 vlineto
          -60 18 rlineto
          661 111 callsubr
          -563 -26 callsubr
          endchar
        </CharString>
        <CharString name="kcommaaccent">
          27 0 52 390 69 callsubr
          291 hmoveto
          52 vlineto
          -60 18 rlineto
          661 111 callsubr
          -563 -26 callsubr
          -308 -236 -56 callgsubr
        </CharString>
        <CharString name="kgreenlandic">
          34 0 52 390 50 hstem
          103 135 vstem
          298 hmoveto
          52 vlineto
          -60 18 rlineto
          432 -45 vlineto
          -168 -37 rlineto
          -50 vlineto
          78 -10 rlineto
          -335 -26 callsubr
          endchar
        </CharString>
        <CharString name="l">
          -235 0 50 hstem
          93 135 vstem
          228 70 35 callgsubr
        </CharString>
        <CharString name="lacute">
          -235 0 69 callsubr
          37 711 -86 callsubr
          194 -641 35 callgsubr
        </CharString>
        <CharString name="lcaron">
          -191 0 69 callsubr
          273 1 callsubr
          -42 -686 35 callgsubr
        </CharString>
        <CharString name="lcommaaccent">
          -235 0 69 callsubr
          231 70 -51 callsubr
          -81 -306 -56 callgsubr
        </CharString>
        <CharString name="ldot">
          -235 0 50 292 150 hstemhm
          93 135 17 151 hintmask 11100000
          228 70 -51 callsubr
          hintmask 11110000
          168 347 24 callgsubr
        </CharString>
        <CharString name="less">
          -47 97 408 hstem
          27 424 vstem
          185 301 rmoveto
          266 134 -42 70 -382 -204 382 -204 42 70 -266 134 rlineto
          endchar
        </CharString>
        <CharString name="lessequal">
          -47 0 79 hstem
          427 36 vstem
          201 301 rmoveto
          266 127 -40 67 -384 -194 384 -196 40 69 -266 127 rlineto
          262 -222 49 callsubr
          endchar
        </CharString>
        <CharString name="logicalnot">
          -7 262 79 hstem
          407 75 vstem
          67 341 rmoveto
          -79 340 -146 75 225 -415 vlineto
          endchar
        </CharString>
        <CharString name="longs">
          -171 0 50 370 48 180 83 hstem
          108 133 vstem
          30 hmoveto
          331 55 hlineto
          -118 19 -2 447 rlineto
          71 5 56 63 10 12 -3 -3 8 vhcurveto
          18 -80 rlineto
          65 hlineto
          19 145 rlineto
          11 -12 -55 13 -36 hhcurveto
          -147 -83 -83 -141 hvcurveto
          41 callgsubr
          -50 vlineto
          endchar
        </CharString>
        <CharString name="lozenge">
          -109 -1 615 hstem
          9 433 vstem
          9 307 rmoveto
          192 -308 rlineto
          50 hlineto
          191 308 -191 307 rlineto
          -50 hlineto
          -192 -307 rlineto
          338 hmoveto
          -121 -213 -122 213 122 212 121 -212 rlineto
          endchar
        </CharString>
        <CharString name="lslash">
          -235 0 69 callsubr
          231 452 rmoveto
          279 -95 callsubr
          -261 vlineto
          -99 -59 32 -56 67 40 rlineto
          -227 97 callsubr
          307 vlineto
          108 65 -32 56 -76 -46 rlineto
          endchar
        </CharString>
        <CharString name="m">
          361 0 71 callgsubr
          hstem
          103 135 159 135 159 135 vstem
          298 hmoveto
          99 callsubr
          39 hhcurveto
          57 112 callsubr
          70 callsubr
          255 99 callsubr
          43 hhcurveto
          51 13 72 callsubr
          328 vlineto
          80 -63 24 -63 -58 -85 -30 -16 -40 vhcurveto
          35 -24 -43 11 -42 hhcurveto
          -55 -81 -24 -16 -34 hvcurveto
          40 -70 callsubr
          -37 rlineto
          -50 vlineto
          78 -10 rlineto
          -335 vlineto
          -78 -25 rlineto
          -45 273 vlineto
          endchar
        </CharString>
        <CharString name="macron">
          -302 606 79 hstem
          7 241 vstem
          7 685 -33 callsubr
          endchar
        </CharString>
        <CharString name="macron.case">
          -302 679 79 hstem
          7 241 vstem
          7 758 -33 callsubr
          endchar
        </CharString>
        <CharString name="minus">
          -47 262 79 hstem
          48 414 vstem
          462 341 49 callsubr
          endchar
        </CharString>
        <CharString name="multiply">
          -47 113 380 hstem
          66 379 vstem
          256 247 rmoveto
          133 -132 56 57 -133 131 133 132 -58 56 -131 -131 -132 133 -58 -56 133 -134 -133 -132 56 -58 134 134 rlineto
          endchar
        </CharString>
        <CharString name="n">
          73 0 -13 callsubr
          238 462 -98 callsubr
          endchar
        </CharString>
        <CharString name="nacute">
          73 0 -13 callsubr
          235 -80 callgsubr
          3 -96 -98 callsubr
          endchar
        </CharString>
        <CharString name="nacute.loclPLK">
          73 0 -13 callsubr
          295 552 -54 callgsubr
          -57 -90 -98 callsubr
          endchar
        </CharString>
        <CharString name="napostrophe">
          43 0 -13 callsubr
          71 1 callsubr
          167 -294 -98 callsubr
          endchar
        </CharString>
        <CharString name="ncaron">
          73 0 -13 callsubr
          198 -81 callsubr
          40 -270 -98 callsubr
          endchar
        </CharString>
        <CharString name="ncommaaccent">
          73 0 -13 callsubr
          238 462 -98 callsubr
          64 -698 -56 callgsubr
        </CharString>
        <CharString name="nine">
          -47 -12 72 176 93 callgsubr
          56 85 rmoveto
          -15 -66 rlineto
          -24 62 43 -7 54 hhcurveto
          167 103 89 264 146 -41 142 -180 -195 -29 -131 -75 -117 70 -70 119 40 36 7 20 49 hvcurveto
          -116 -30 -87 -122 -30 -43 6 19 -58 vhcurveto
          285 258 rmoveto
          -18 -31 -37 -16 -36 hhcurveto
          -46 -37 35 93 73 33 48 53 93 8 -98 -117 hvcurveto
          endchar
        </CharString>
        <CharString name="nine.dnom">
          -7 14 callsubr
          72 -69 callsubr
        </CharString>
        <CharString name="nine.numr">
          165 14 callsubr
          244 -69 callsubr
        </CharString>
        <CharString name="nine.osf">
          -47 -100 64 182 93 callgsubr
          470 268 rmoveto
          137 -41 134 -187 -185 -32 -131 -77 -114 70 -71 120 38 37 7 20 49 vhcurveto
          -133 -10 -68 -76 -126 hhcurveto
          -14 -15 1 6 -33 hvcurveto
          -8 -57 rlineto
          -11 33 28 -3 28 hhcurveto
          160 156 100 268 hvcurveto
          -316 74 rmoveto
          77 29 49 61 89 8 -104 -111 vhcurveto
          -18 -31 -38 -16 -32 hhcurveto
          -49 -37 36 87 hvcurveto
          endchar
        </CharString>
        <CharString name="notequal">
          -47 173 79 98 79 hstem
          48 414 vstem
          48 429 rmoveto
          -79 189 vlineto
          -56 -98 rlineto
          -133 -79 87 hlineto
          -43 -74 68 -40 66 114 rlineto
          236 79 -190 hlineto
          57 98 rlineto
          133 79 -87 hlineto
          43 74 -68 41 -67 -115 rlineto
          -235 hlineto
          endchar
        </CharString>
        <CharString name="ntilde">
          73 0 71 callgsubr
          81 89 callgsubr
          103 135 165 135 hintmask 11101100
          491 -23 callsubr
          -253 -225 -98 callsubr
          endchar
        </CharString>
        <CharString name="numbersign">
          1 159 76 88 77 hstem
          0 558 vstem
          411 235 rmoveto
          24 88 rlineto
          102 hlineto
          21 77 rlineto
          -102 hlineto
          46 167 rlineto
          -83 hlineto
          -45 -167 rlineto
          -113 hlineto
          49 167 rlineto
          -84 hlineto
          -47 -167 rlineto
          -115 hlineto
          -23 -77 rlineto
          118 hlineto
          -24 -88 rlineto
          -113 hlineto
          -22 -76 rlineto
          114 hlineto
          -47 -167 rlineto
          84 hlineto
          46 167 rlineto
          112 hlineto
          -48 -167 rlineto
          84 hlineto
          46 167 rlineto
          102 hlineto
          25 76 rlineto
          -107 hlineto
          -194 hmoveto
          23 88 rlineto
          114 hlineto
          -25 -88 rlineto
          -112 hlineto
          endchar
        </CharString>
        <CharString name="o">
          -42 callgsubr
          270 502 -102 callsubr
        </CharString>
        <CharString name="oacute">
          -42 callgsubr
          191 -80 callgsubr
          79 -56 -102 callsubr
        </CharString>
        <CharString name="oacute.loclPLK">
          -42 callgsubr
          252 552 -54 callgsubr
          18 -50 -102 callsubr
        </CharString>
        <CharString name="obreve">
          -13 -29 callgsubr
          72 72 callgsubr
          265 -50 callgsubr
          hintmask 11110010
          5 -72 -102 callsubr
        </CharString>
        <CharString name="ocircumflex">
          -42 callgsubr
          -18 callsubr
          endchar
        </CharString>
        <CharString name="odieresis">
          -13 -29 callgsubr
          74 145 85 callsubr
          -91 19 callsubr
          -88 121 callsubr
          hintmask 11101100
          231 648 -12 callgsubr
          -192 -146 -102 callsubr
        </CharString>
        <CharString name="oe">
          274 -10 68 -68 75 179 59.5 131.5 67 85 callsubr
          204 145 77 callgsubr
          hintmask 00000000
          hintmask 01111110
          519 220 rmoveto
          24 281 vlineto
          3 17 2 37 12 vvcurveto
          132 -61 60 -140 -61 -60 -23 -52 -40 vhcurveto
          46 -36 -60 29 -77 hhcurveto
          -177 -68 -115 -143 hvcurveto
          hintmask 10111110
          -138 70 -116 175 76 70 44 45 26 vhcurveto
          hintmask 01111110
          -43 16 76 -46 80 hhcurveto
          73 callgsubr
          32 123 hvcurveto
          -145 38 rmoveto
          -12 vlineto
          hintmask 10111110
          30 callsubr
          -85 -19 82 106 109 18 80 80 vhcurveto
          hintmask 01111110
          82 22 -74 -103 2 hvcurveto
          295 72 63 callgsubr
        </CharString>
        <CharString name="ogonek">
          -302 -233 62 hstem
          21 85 vstem
          157 hmoveto
          -45 hlineto
          -63 -51 -28 -57 -39 -5 callgsubr
          -32 -11 20 25 40 25 58 26 28 hvcurveto
          endchar
        </CharString>
        <CharString name="ograve">
          -42 callgsubr
          355 -48 callgsubr
          -85 -56 -102 callsubr
        </CharString>
        <CharString name="ohorn">
          -13 -10 113 callsubr
          25 145 204 145 -53 98 hintmask 00000000
          hintmask 11101000
          564 537 -64 callgsubr
        </CharString>
        <CharString name="ohungarumlaut">
          -42 callgsubr
          153 552 -62 callsubr
          -44 -50 -102 callsubr
        </CharString>
        <CharString name="omacron">
          -13 -29 callgsubr
          104 79 85 callsubr
          -19 241 -18 121 callsubr
          hintmask 11101000
          151 685 -33 callsubr
          hintmask 11110100
          119 -183 -102 callsubr
        </CharString>
        <CharString name="one">
          -47 0 49 479 81 callgsubr
          543 vlineto
          -283 -43 rlineto
          -48 157 -451 101 callgsubr
        </CharString>
        <CharString name="one.dnom">
          360 41 102 callsubr
          360 -15 callsubr
          endchar
        </CharString>
        <CharString name="one.numr">
          532 41 102 callsubr
          532 -15 callsubr
          endchar
        </CharString>
        <CharString name="one.osf">
          -47 0 49 405 81 callgsubr
          469 vlineto
          -283 -43 rlineto
          -48 157 -377 101 callgsubr
        </CharString>
        <CharString name="oneeighth">
          405 -6 52 341 53 92 41 hstemhm
          165 107 318 100 -91 104 91 104 -103 113 hintmask 11111001
          376 -54 callsubr
          -326 602 -15 callsubr
          540 -436 -35 callgsubr
          hintmask 11110110
          -47 callsubr
          hintmask 11111001
          -60 -34 -21 -37 -49 vvcurveto
          hintmask 11110110
          -57 callgsubr
          hintmask 11111001
          -63 callsubr
        </CharString>
        <CharString name="onehalf">
          374 0 62 319 61 90 41 hstem
          165 107 449 110 vstem
          339 -54 callsubr
          -289 602 -15 callsubr
          619 -151 -74 callsubr
          endchar
        </CharString>
        <CharString name="onequarter">
          374 79 61 392 41 hstem
          179 107 427 101 vstem
          372 -54 callsubr
          -308 602 -15 callsubr
          649 -532 rmoveto
          -61 callgsubr
        </CharString>
        <CharString name="ordfeminine">
          -145 270 72 253 60 hstem
          28 111 83 118 vstem
          179 595 rmoveto
          29 14 -18 -39 hvcurveto
          -47 vlineto
          -97 92 callgsubr
          26 20 28 34 vhcurveto
          -28 6 39 -15 39 77 callsubr
          -52 17 -75 -56 -61 -12 -15 -46 vhcurveto
          13 -108 rlineto
          46 hlineto
          19 67 rlineto
          4 12 19 4 20 hhcurveto
          9 -158 rmoveto
          34 7 rlineto
          -86 vlineto
          -9 -13 -18 -7 -14 hhcurveto
          -16 -22 8 30 27 11 23 38 7 hvcurveto
          endchar
        </CharString>
        <CharString name="ordmasculine">
          -131 116 callsubr
          130 123 37 callsubr
          65 -191 rmoveto
          -77 -11 106 callgsubr
          14 -59 -78 vhcurveto
          endchar
        </CharString>
        <CharString name="oslash">
          -42 callgsubr
          270 502 -36 callgsubr
        </CharString>
        <CharString name="oslashacute">
          -42 callgsubr
          191 -80 callgsubr
          79 -56 -36 callgsubr
        </CharString>
        <CharString name="otilde">
          -13 -29 callgsubr
          81 90 callsubr
          445 -23 callsubr
          -175 -185 -102 callsubr
        </CharString>
        <CharString name="p">
          18 117 callgsubr
          95 135 175 145 vstem
          338 6 callsubr
          -102 -115 -18 -19 -78 hvcurveto
          -50 vlineto
          90 -7 rlineto
          -506 -49 callsubr
          321 53 vlineto
          endchar
        </CharString>
        <CharString name="paragraph">
          -5 0 44 527 43 hstem
          28 217 46 125 vstem
          245 223 rmoveto
          392 vlineto
          1 -9 -1 0 -11 hhcurveto
          -127 -69 -87 -109 -108 69 -90 127 11 3 0 1 7 hvcurveto
          253 -179 rmoveto
          -82 26 rlineto
          474 vlineto
          82 27 rlineto
          43 -207 -543 vlineto
          -98 -26 rlineto
          -45 305 44 vlineto
          endchar
        </CharString>
        <CharString name="parenleft">
          -222 -182 897 hstem
          64 114 vstem
          178 265 rmoveto
          120 0 228 136 59 vhcurveto
          -11 43 rlineto
          -189 -56 -50 -104 -290 vvcurveto
          -287 50 -107 189 -53 vhcurveto
          11 41 rlineto
          -136 61 0 228 117 vvcurveto
          endchar
        </CharString>
        <CharString name="parenright">
          -222 -182 897 hstem
          157 111 vstem
          157 265 rmoveto
          -117 0 -228 -137 -61 vhcurveto
          11 -41 rlineto
          189 53 48 107 287 vvcurveto
          290 -48 104 -189 56 vhcurveto
          -11 -43 rlineto
          137 -59 0 -228 -120 vvcurveto
          endchar
        </CharString>
        <CharString name="partialdiff">
          14 -10 67 332 67 196 77 hstem
          30 139 207 137 vstem
          57 667 rmoveto
          29 -40 rlineto
          18 48 22 7 44 hhcurveto
          135 20 -85 -139 11 hvcurveto
          2 -44 26 -81 -118 -93 -92 -143 -131 60 -100 167 107 149 53 286 267 -97 133 -187 -66 -60 -17 -45 -46 vhcurveto
          202 -610 rmoveto
          -64 -26 48 116 84 14 84 98 37 30 -18 -20 26 hvcurveto
          1 -30 1 -8 -35 vvcurveto
          -150 -29 -71 -88 vhcurveto
          endchar
        </CharString>
        <CharString name="percent">
          374 -8 86 100 86 94 86 100 85 hstem
          35 73 205 69 166 -31 callsubr
          -170 -139 rmoveto
          20 callsubr
          endchar
        </CharString>
        <CharString name="period">
          -337 -8 164 hstem
          26 168 vstem
          194 72 rmoveto
          27 callgsubr
        </CharString>
        <CharString name="periodcentered">
          -327 178 150 hstem
          57 151 vstem
          208 253 24 callgsubr
        </CharString>
        <CharString name="perthousand">
          764 -8 86 100 86 94 86 100 85 hstem
          35 73 205 69 166 71 205 68 46 -31 callsubr
          390 hmoveto
          170 -75 57 -95 -97 -77 -58 -169 -167 77 -58 97 95 75 56 169 vhcurveto
          -560 -139 rmoveto
          20 callsubr
          390 hmoveto
          20 callsubr
          endchar
        </CharString>
        <CharString name="pi">
          108 -8 76 346 107 hstem
          169 104 136 107 57 69 vstem
          87 55 rmoveto
          -43 vlineto
          -12 47 21 -5 37 hhcurveto
          73 8 42 52 hvcurveto
          325 136 -259 vlineto
          -150 53 -13 71 23 45 9 20 42 vhcurveto
          -6 47 rlineto
          -45 hlineto
          -53 -23 29 44 hvcurveto
          273 27 vlineto
          62 37 41 105 hvcurveto
          16 -69 vlineto
          -40 -18 -15 -32 vhcurveto
          -376 hlineto
          -88 -37 -63 -83 hvcurveto
          52 -13 rlineto
          40 18 21 12 47 hhcurveto
          9 -331 hlineto
          -82 -28 rlineto
          endchar
        </CharString>
        <CharString name="plus">
          -47 262 31 callsubr
          endchar
        </CharString>
        <CharString name="plusminus">
          -47 0 79 183 31 callsubr
          247 -262 49 callsubr
          endchar
        </CharString>
        <CharString name="product">
          143 0 45 501 68 45 callgsubr
          190 135 vstem
          255 69 rmoveto
          477 190 -68 callsubr
          477 -11 callsubr
          -630 -45 vlineto
          85 -23 rlineto
          -68 callsubr
          endchar
        </CharString>
        <CharString name="q">
          -12 -168 50 108 81 364 76 callsubr
          174 135 vstem
          479 -97 rmoveto
          592 -46 vlineto
          -58 -32 rlineto
          25 -45 -45 14 -51 hhcurveto
          -145 -64 -115 -143 -142 56 -112 109 76 36 24 35 45 hvcurveto
          -143 vlineto
          -98 -24 rlineto
          -50 301 50 vlineto
          -71 21 rlineto
          -135 501 rmoveto
          -295 vlineto
          -24 -21 -33 -14 -34 hhcurveto
          -49 -37 40 148 100 33 76 63 25 24 -8 -23 29 hvcurveto
          endchar
        </CharString>
        <CharString name="question">
          -177 -8 137 432 68 hstemhm
          72 135 22 133 hintmask 11010000
          174 629 rmoveto
          -60 -62 -21 -19 -34 hvcurveto
          19 -134 rlineto
          62 hlineto
          19 103 rlineto
          2 9 13 1 7 hhcurveto
          43 39 -21 -50 -91 -82 -56 -61 -26 hvcurveto
          24 -125 rlineto
          59 hlineto
          8 87 rlineto
          156 63 29 76 72 vvcurveto
          73 -70 66 -118 vhcurveto
          hintmask 11110000
          -35 -500 rmoveto
          -39 -28 -33 -38 -38 28 -28 39 38 30 28 38 38 -30 33 -38 hvcurveto
          endchar
        </CharString>
        <CharString name="questiondown">
          -177 -137 71 433 135 hstemhm
          19 133 22 135 120 callsubr
          241 367 rmoveto
          40 28 30 38 38 -28 29 -40 -37 -30 -29 -38 -38 30 -30 37 hvcurveto
          hintmask 11100000
          -33 -504 rmoveto
          51 70 23 20 35 hvcurveto
          -20 133 rlineto
          -61 hlineto
          -20 -102 rlineto
          -2 -12 -10 -1 -7 hhcurveto
          -44 -38 20 49 91 82 57 61 27 hvcurveto
          -24 125 rlineto
          -58 hlineto
          -9 -88 rlineto
          -156 -62 -29 -78 -72 vvcurveto
          -71 70 -69 119 vhcurveto
          endchar
        </CharString>
        <CharString name="quotedbl">
          -212 468 233 hstem
          37 271 vstem
          37 78 callgsubr
          162 hmoveto
          35 -233 rlineto
          38 hlineto
          36 233 rlineto
          -109 hlineto
          endchar
        </CharString>
        <CharString name="quotedblbase">
          -197 -116 243 hstem
          19 319 vstem
          65 78 callsubr
          185 hmoveto
          88 214 -24 29 -96 -23 -13 -212 45 -8 rlineto
          endchar
        </CharString>
        <CharString name="quotedblleft">
          -197 433 254 hstem
          14 318 vstem
          108 687 rmoveto
          -94 -227 29 -27 103 22 13 223 -51 9 rlineto
          172 hmoveto
          -93 -227 30 -27 102 22 13 223 -52 9 rlineto
          endchar
        </CharString>
        <CharString name="quotedblright">
          -197 433 254 hstem
          25 318 vstem
          76 80 callgsubr
          173 hmoveto
          94 226 -29 28 -103 -23 -13 -222 51 -9 rlineto
          endchar
        </CharString>
        <CharString name="quoteleft">
          -362 433 254 hstem
          21 144 vstem
          114 687 rmoveto
          -93 -227 28 -27 103 22 13 223 -51 9 rlineto
          endchar
        </CharString>
        <CharString name="quoteright">
          -362 433 254 hstem
          30 145 vstem
          81 80 callgsubr
          endchar
        </CharString>
        <CharString name="quotesinglbase">
          -362 -116 243 hstem
          32 133 vstem
          78 78 callsubr
          endchar
        </CharString>
        <CharString name="quotesingle">
          -362 468 233 hstem
          42 111 vstem
          42 78 callgsubr
          endchar
        </CharString>
        <CharString name="r">
          5 callgsubr
          303 417 -63 callgsubr
        </CharString>
        <CharString name="racute">
          5 callgsubr
          155 -80 callgsubr
          148 -141 -63 callgsubr
        </CharString>
        <CharString name="radical">
          -57 440 52 227 52 hstem
          -2 620 vstem
          515 702 rmoveto
          103 17 rlineto
          52 -170 vlineto
          -178 -633 -98 354 rlineto
          -174 -52 hlineto
          59 -18 140 -437 104 10 214 707 rlineto
          endchar
        </CharString>
        <CharString name="rcaron">
          5 callgsubr
          108 -81 callsubr
          195 -315 -63 callgsubr
        </CharString>
        <CharString name="rcommaaccent">
          5 callgsubr
          303 417 -62 callgsubr
          -135 -653 -56 callgsubr
        </CharString>
        <CharString name="registered">
          -62 210 33 64 23 110 29 115 29 52 33 hstem
          5 37 111 71 58 74 100 35 vstem
          -1 callsubr
          256 -147 rmoveto
          95 23 hlineto
          -27 7 -14 26 -8 19 -6 13 rlinecurve
          -19 40 -2 10 -20 9 rrcurveto
          41 16 18 33 35 vvcurveto
          35 -26 40 -79 vhcurveto
          -131 -24 hlineto
          33 -8 rlineto
          -243 vlineto
          -33 -8 rlineto
          -23 139 23 vlineto
          -35 8 rlineto
          102 5 vlineto
          21 1 -1 -132 47 hvcurveto
          -58 162 rmoveto
          -16 113 hlineto
          2 6 4 0 3 hhcurveto
          31 14 -22 -30 -37 -14 -26 -28 hvcurveto
          endchar
        </CharString>
        <CharString name="ring">
          -302 548 52 107 53 hstem
          14 74 79 74 vstem
          241 -15 callgsubr
          endchar
        </CharString>
        <CharString name="ring.case">
          -302 627 47 97 48 hstem
          14 74 79 74 vstem
          241 -43 callgsubr
          endchar
        </CharString>
        <CharString name="s">
          40 callsubr
          236 435 -96 callsubr
          endchar
        </CharString>
        <CharString name="sacute">
          -101 46 callsubr
          48 112 148 114 vstem
          149 -80 callgsubr
          93 -123 -96 callsubr
          endchar
        </CharString>
        <CharString name="sacute.loclPLK">
          40 callsubr
          205 552 -54 callgsubr
          31 -117 -96 callsubr
          endchar
        </CharString>
        <CharString name="scaron">
          -101 46 callsubr
          48 112 148 114 vstem
          112 -81 callsubr
          130 -297 -96 callsubr
          endchar
        </CharString>
        <CharString name="scedilla">
          -101 -220 44 167 67 377 67 hstemhm
          47 112 73 96 -21 114 hintmask 11110100
          241 435 rmoveto
          32 18 -6 -8 19 hvcurveto
          20 -74 rlineto
          56 hlineto
          14 126 rlineto
          20 -49 -59 9 -49 hhcurveto
          -135 -61 -63 -95 -74 34 -40 62 -21 hvcurveto
          109 -37 rlineto
          41 -14 14 -9 -30 vvcurveto
          -41 -35 -20 -63 -34 -21 6 6 -17 vhcurveto
          -21 84 rlineto
          -58 hlineto
          -12 -139 rlineto
          hintmask 11111000
          42 -14 58 -8 47 -2 -23 -64 rcurveline
          -75 callgsubr
          11 37 rlineto
          hintmask 11110100
          116 8 65 59 88 vvcurveto
          82 -34 38 -67 21 vhcurveto
          -4 callgsubr
          endchar
        </CharString>
        <CharString name="scircumflex">
          40 callsubr
          344 559 -95 callgsubr
          -108 -124 -96 callsubr
          endchar
        </CharString>
        <CharString name="scommaaccent">
          -101 46 callsubr
          47 112 148 114 vstem
          241 435 -96 callsubr
          -29 -671 -56 callgsubr
        </CharString>
        <CharString name="section">
          -157 -8 61 553 61 hstem
          64 92 82 94 vstem
          268 599 rmoveto
          20 -91 rlineto
          56 hlineto
          12 140 rlineto
          0 -52 19 -84 -94 -62 -46 -68 -71 65 -28 206 -246 vhcurveto
          8 11 8 20 39 104 -195 125 52 vvcurveto
          38 35 9 40 14 12 -3 -4 11 vhcurveto
          -162 -450 rmoveto
          -54 hlineto
          -14 -137 rlineto
          0 54 -20 85 94 61 39 68 70 -65 28 -204 246 vhcurveto
          -12 -20 -5 -15 -28 -105 192 -115 -56 vvcurveto
          -45 -35 -6 -36 -15 -11 3 4 -13 vhcurveto
          -22 89 rlineto
          endchar
        </CharString>
        <CharString name="semicolon">
          -357 312 162 hstem
          15 168 vstem
          183 62 callgsubr
          -100 -507 rmoveto
          94 228 -29 28 -102 -22 -13 -225 50 -9 rlineto
          endchar
        </CharString>
        <CharString name="seven">
          -47 527 87 hstem
          36 447 vstem
          43 448 rmoveto
          72 hlineto
          20 79 rlineto
          248 hlineto
          -260 -525 128 -15 232 570 -17 57 rlineto
          -430 hlineto
          7 -166 rlineto
          endchar
        </CharString>
        <CharString name="seven.dnom">
          372 83 callsubr
          321 -40 callsubr
          endchar
        </CharString>
        <CharString name="seven.numr">
          545 83 callsubr
          494 -40 callsubr
          endchar
        </CharString>
        <CharString name="seven.osf">
          -47 441 87 hstem
          36 457 vstem
          43 362 rmoveto
          72 hlineto
          20 79 rlineto
          258 hlineto
          -116 -172 -98 -180 -54 -181 126 -14 rcurveline
          43 201 82 184 117 192 -17 57 rcurveline
          -440 hlineto
          7 -166 rlineto
          endchar
        </CharString>
        <CharString name="seveneighths">
          419 -6 52 341 53 105 58 hstemhm
          604 100 -91 104 91 104 -103 113 hintmask 11110010
          376 -54 callsubr
          -335 564 -40 callsubr
          563 -398 -35 callgsubr
          hintmask 11101100
          -47 callsubr
          hintmask 11110010
          -60 -34 -21 -37 -49 vvcurveto
          hintmask 11101100
          -57 callgsubr
          hintmask 11110010
          -63 callsubr
        </CharString>
        <CharString name="six">
          -32 callsubr
        </CharString>
        <CharString name="six.dnom">
          -7 39 callsubr
          150 260 rmoveto
          79 22 52 49 -10 callgsubr
          -28 -2 -4 -25 hvcurveto
          -8 -101 0 callsubr
        </CharString>
        <CharString name="six.numr">
          162 39 callsubr
          148 416 rmoveto
          105 16 60 36 -10 callgsubr
          -31 -7 -12 -24 hvcurveto
          -6 -88 0 callsubr
        </CharString>
        <CharString name="six.osf">
          -32 callsubr
        </CharString>
        <CharString name="slash">
          108 callgsubr
          373 698 rmoveto
          -99 hlineto
          -271 -837 rlineto
          96 hlineto
          274 837 rlineto
          endchar
        </CharString>
        <CharString name="space">
          -387 endchar
        </CharString>
        <CharString name="sterling">
          -19 0 69 194 60 235 64 hstem
          121 127 vstem
          246 179 rmoveto
          1 84 rlineto
          177 hlineto
          9 60 rlineto
          -185 44 hlineto
          110 6 81 77 16 21 -2 -7 17 vhcurveto
          21 -89 rlineto
          53 hlineto
          10 135 rlineto
          15 -45 -54 12 -60 hhcurveto
          -138 -51 -98 -201 hvcurveto
          -89 hlineto
          -10 -60 rlineto
          99 -87 hlineto
          -90 -90 -39 0 vhcurveto
          13 -47 rlineto
          426 hlineto
          33 115 -32 17 -50 -57 -259 -12 41 24 42 32 1 60 rlinecurve
          endchar
        </CharString>
        <CharString name="summation">
          -35 -98 98 544 70 hstemhm
          424 58 -45 58 hintmask 00000000
          hintmask 11100000
          424 449 rmoveto
          58 165 -480 -45 hlineto
          226 -325 -232 -312 rlineto
          -30 vlineto
          hintmask 11010000
          499 189 -58 hlineto
          -25 -91 rlineto
          -275 hlineto
          203 262 rlineto
          10 vlineto
          -189 272 rlineto
          hintmask 11100000
          249 hlineto
          24 -95 rlineto
          endchar
        </CharString>
        <CharString name="t">
          -209 417.5 64 callsubr
          hintmask 10100000
          318 11 callsubr
          endchar
        </CharString>
        <CharString name="tbar">
          -209 248 55 114.5 64 callsubr
          hintmask 11010000
          332 414 rmoveto
          78 -113 vlineto
          hintmask 10110000
          106 callsubr
          -117 -57 -55 57 -179 vlineto
          -38 12 -40 77 38 63 9 13 42 vhcurveto
          50 vlineto
          -99 22 rlineto
          163 99 55 -99 vlineto
          hintmask 11010000
          118 vlineto
          113 -7 rlineto
          endchar
        </CharString>
        <CharString name="tcaron">
          -209 417.5 47 callgsubr
          47 62 75 hstemhm
          92 133 hintmask 10110000
          253 1 callsubr
          71 -743 6 callgsubr
          112 -61 vlineto
          hintmask 01110000
          21 callgsubr
          hintmask 10110000
          38 63 9 13 42 hvcurveto
          endchar
        </CharString>
        <CharString name="thorn">
          -16 117 callgsubr
          63 133 175 145 vstem
          304 6 callsubr
          -23 -24 -1 -2 -23 hvcurveto
          232 -44 vlineto
          -167 -99 callgsubr
          -731 -49 callsubr
          319 53 vlineto
          endchar
        </CharString>
        <CharString name="three">
          -47 -12 74 487 80 hstemhm
          289 131 -106 55 callsubr
          hintmask 11100000
          242 629 rmoveto
          -72 -89 -23 -32 -51 hvcurveto
          29 -61 rlineto
          28 61 59 8 28 hhcurveto
          58 24 -27 -49 -63 104 callgsubr
          79 91 -11 -105 -80 -60 -33 -63 -30 -42 7 25 -74 hvcurveto
          -20 -69 rlineto
          -21 56 69 -16 65 hhcurveto
          154 80 63 124 79 -52 61 -87 19 hvcurveto
          97 callgsubr
          vhcurveto
          endchar
        </CharString>
        <CharString name="three.dnom">
          -10 21 callsubr
          120 callsubr
          204 440 -58 callgsubr
          hintmask 11101000
          -65 callgsubr
          hintmask 11110000
          8 callgsubr
          endchar
        </CharString>
        <CharString name="three.numr">
          162 21 callsubr
          120 callsubr
          204 612 -58 callgsubr
          hintmask 11101000
          -65 callgsubr
          hintmask 11110000
          8 callgsubr
          endchar
        </CharString>
        <CharString name="three.osf">
          -47 -100 71 488 80 hstemhm
          289 131 -112 136 hintmask 11010000
          444 85 rmoveto
          91 -51 49 -83 19 vhcurveto
          97 callgsubr
          -72 -89 -23 -32 -51 vhcurveto
          29 -61 rlineto
          28 61 58 8 31 hhcurveto
          56 24 -27 -50 -62 104 callgsubr
          88 -1 76 -6 -102 vvcurveto
          -93 -64 -28 -98 -42 -12 5 4 -49 vhcurveto
          -5 -65 rlineto
          -12 50 54 -3 38 hhcurveto
          170 94 61 124 hvcurveto
          endchar
        </CharString>
        <CharString name="threeeighths">
          456 -6 52 116 56 151 46 -28 53 116 56 hstemhm
          226 111 -92 112 284 100 -91 104 91 104 -103 113 hintmask 1101101100100000
          426 -54 callsubr
          hintmask 1110110100100000
          -222 682 -58 callgsubr
          hintmask 1110101100100000
          -65 callgsubr
          hintmask 1110110100100000
          8 callgsubr
          hintmask 1101101100100000
          437 -516 -35 callgsubr
          hintmask 1101101011000000
          -47 callsubr
          hintmask 1101101100100000
          -60 -34 -21 -37 -49 vvcurveto
          hintmask 1101101011000000
          -57 callgsubr
          hintmask 1101101100100000
          -63 callsubr
        </CharString>
        <CharString name="threequarters">
          410 79 61 22 21 callsubr
          392 101 hintmask 10111010
          406 -54 callsubr
          -202 682 -58 callgsubr
          hintmask 11110110
          -65 callgsubr
          hintmask 10111010
          8 callgsubr
          545 -612 rmoveto
          -61 callgsubr
        </CharString>
        <CharString name="tilde">
          -302 583 89 callgsubr
          -47 349 hintmask 10100000
          302 25 callsubr
          hintmask 01100000
          -64 callsubr
          hintmask 10100000
          -79 callsubr
          endchar
        </CharString>
        <CharString name="tilde.case">
          -302 661 89 callgsubr
          -47 349 hintmask 10100000
          302 765 -53 callgsubr
          hintmask 01100000
          -85 callgsubr
          hintmask 10100000
          -79 callsubr
          endchar
        </CharString>
        <CharString name="tildecomb">
          -557 661 89 callgsubr
          -302 349 hintmask 10100000
          47 765 -53 callgsubr
          hintmask 01100000
          -85 callgsubr
          hintmask 10100000
          -79 callsubr
          endchar
        </CharString>
        <CharString name="trademark">
          308 280 27 294 46 hstem
          140 83 172 52 255 84 vstem
          293 601 rmoveto
          15 -48 rlineto
          39 hlineto
          3 94 rlineto
          -336 hlineto
          4 -94 rlineto
          39 hlineto
          15 49 rlineto
          68 -282 hlineto
          -47 -13 rlineto
          -27 177 27 vlineto
          -47 13 rlineto
          281 70 vlineto
          151 -281 rmoveto
          6 212 99 -260 61 8 88 260 8 -220 -45 -13 rlineto
          -27 179 27 vlineto
          -49 13 -10 287 48 12 rlineto
          28 -149 vlineto
          -85 -252 -90 252 rlineto
          -151 -28 hlineto
          47 -12 -12 -287 -45 -13 rlineto
          -27 148 27 vlineto
          -48 13 rlineto
          endchar
        </CharString>
        <CharString name="two">
          -47 0 81.5 462.5 85 hstem
          301 144 vstem
          224 293 rmoveto
          -218 -223 24 -70 92 callsubr
          -40 -80 -235 -13 rlineto
          201 182 110 76 134 vvcurveto
          122 -91 40 -117 -84 -69 -27 -28 -57 vhcurveto
          30 -66 rlineto
          17 47 39 19 47 hhcurveto
          79 32 -39 -52 -53 -32 -64 -45 -43 hvcurveto
          endchar
        </CharString>
        <CharString name="two.dnom">
          0 62 319 61 95 callgsubr
          381 -74 callsubr
          endchar
        </CharString>
        <CharString name="two.numr">
          172 62 319 61 hstem
          248 110 vstem
          196 553 -74 callsubr
          endchar
        </CharString>
        <CharString name="two.osf">
          -47 0 82.5 371.5 85 hstem
          301 144 vstem
          409 168 rmoveto
          -40 -80 -208 -11 119 83 rlineto
          110 77 55 46 94 vvcurveto
          122 -93 40 -111 -90 -64 -26 -29 -60 vhcurveto
          30 -66 rlineto
          20 55 31 16 49 hhcurveto
          77 32 -39 -53 -52 -32 -37 -47 -38 hvcurveto
          -213 -173 21 -62 92 callsubr
          endchar
        </CharString>
        <CharString name="u">
          2 callsubr
          594 12 rmoveto
          -14 callsubr
          419 -44 vlineto
          -169 -107 callsubr
          endchar
        </CharString>
        <CharString name="uacute">
          2 callsubr
          218 -80 callgsubr
          376 -546 rmoveto
          -14 callsubr
          419 -44 vlineto
          -169 -107 callsubr
          endchar
        </CharString>
        <CharString name="ubreve">
          63 -10 82 502 76 103 callgsubr
          -41 115 callgsubr
          -50 55 callsubr
          hintmask 11011000
          303 -50 callgsubr
          hintmask 11100100
          291 -562 rmoveto
          -14 callsubr
          419 -44 vlineto
          -169 -107 callsubr
          endchar
        </CharString>
        <CharString name="ucircumflex">
          2 callsubr
          415 559 -95 callgsubr
          179 -547 rmoveto
          -14 callsubr
          419 -44 vlineto
          -169 -107 callsubr
          endchar
        </CharString>
        <CharString name="udieresis">
          63 -10 82 504 145 103 callgsubr
          -124 19 callsubr
          -107 55 callsubr
          hintmask 11011000
          257 648 -103 callsubr
          hintmask 11100100
          106 -636 rmoveto
          -14 callsubr
          419 -44 vlineto
          -169 -107 callsubr
          endchar
        </CharString>
        <CharString name="ugrave">
          2 callsubr
          378 -48 callgsubr
          216 -546 rmoveto
          -14 callsubr
          419 -44 vlineto
          -169 -107 callsubr
          endchar
        </CharString>
        <CharString name="uhorn">
          32 callsubr
          666 566 -90 callgsubr
          endchar
        </CharString>
        <CharString name="uhungarumlaut">
          2 callsubr
          167 552 -62 callsubr
          266 -540 rmoveto
          -14 callsubr
          419 -44 vlineto
          -169 -107 callsubr
          endchar
        </CharString>
        <CharString name="umacron">
          63 -10 82 534 79 103 callgsubr
          -41 241 -48 135 hintmask 01101000
          188 685 rmoveto
          -79 vlineto
          hintmask 01010000
          241 79 hlineto
          hintmask 01101000
          -241 hlineto
          406 -673 rmoveto
          -14 callsubr
          419 -95 callsubr
          hintmask 11101000
          -299 vlineto
          -18 -25 -38 -15 -27 hhcurveto
          -46 -16 24 44 hvcurveto
          362 -83 callgsubr
          -58 30 -57 97 58 69 29 33 37 vhcurveto
          -37 7 48 -20 45 hhcurveto
          hintmask 01101000
          37 25 5 12 47 hvcurveto
          endchar
        </CharString>
        <CharString name="underscore">
          -115 -79 61 hstem
          0 442 vstem
          442 -79 rmoveto
          61 -442 -61 442 vlineto
          endchar
        </CharString>
        <CharString name="uni00A0">
          -377 endchar
        </CharString>
        <CharString name="uni00AD">
          -275 203 60 119 callsubr
          60 -265 -60 265 vlineto
          endchar
        </CharString>
        <CharString name="uni00B2">
          277 62 321 59 95 callgsubr
          660 rmoveto
          33 19 -24 -37 -44 -31 -49 -34 -36 hvcurveto
          -145 -150 16 -43 rlineto
          307 hlineto
          8 107 -61 7 -24 -52 rlineto
          -127 hlineto
          95 95 rlineto
          50 50 56 66 50 vvcurveto
          88 -69 31 -84 -55 -59 -18 -22 -35 vhcurveto
          21 -53 rlineto
          23 49 39 11 31 hhcurveto
          endchar
        </CharString>
        <CharString name="uni00B3">
          269 59 147 50 138 58 hstemhm
          226 111 -92 112 120 callsubr
          204 721 rmoveto
          -55 -55 -19 -24 -38 hvcurveto
          21 -52 rlineto
          23 51 36 14 15 hhcurveto
          32 15 -18 -30 -40 -27 -42 -77 -8 hvcurveto
          4 -50 rlineto
          hintmask 11101000
          56 63 -6 -66 -49 -33 -26 -48 -15 -30 5 21 -64 hvcurveto
          -11 -53 rlineto
          -17 42 53 -15 48 hhcurveto
          110 60 48 86 49 -32 43 -58 18 hvcurveto
          hintmask 11110000
          42 22 28 43 45 vvcurveto
          66 -59 32 -74 vhcurveto
          endchar
        </CharString>
        <CharString name="uni00B5">
          -28 callsubr
        </CharString>
        <CharString name="uni00B9">
          640 43 102 callsubr
          640 rmoveto
          115 -358 107 433 hlineto
          -222 -32 rlineto
          -43 vlineto
          endchar
        </CharString>
        <CharString name="uni0162">
          -18 -220 44 176 45 501 68 hstemhm
          202 135 -54 96 70 80 hintmask 11110000
          7 614 rmoveto
          7 -159 rlineto
          55 hlineto
          19 91 rlineto
          114 -477 hlineto
          -84 -24 rlineto
          -45 vlineto
          hintmask 11101000
          130 hlineto
          -27 -73 -75 callgsubr
          hintmask 11110100
          14 46 rlineto
          128 45 hlineto
          -85 24 rlineto
          477 112 vlineto
          20 -91 rlineto
          57 hlineto
          6 159 rlineto
          hintmask 11110000
          -525 hlineto
          endchar
        </CharString>
        <CharString name="uni0163">
          -209 -220 44 593.5 94 callsubr
          92 133 -24 96 hintmask 11010000
          324 13 6 callgsubr
          vlineto
          hintmask 10110000
          106 callsubr
          -351 vlineto
          -35 10 -36 60 -6 vhcurveto
          hintmask 11001000
          -23 -65 -75 callgsubr
          hintmask 11010000
          12 38 36 3 45 8 33 10 rlinecurve
          endchar
        </CharString>
        <CharString name="uni018F">
          96 -9 71 214 59 220 73 hstem
          30 146 301 146 vstem
          317 -9 rmoveto
          197 109 115 202 175 -82 145 -228 -88 -76 -22 -30 -64 hvcurveto
          8 -141 rlineto
          53 hlineto
          25 86 rlineto
          24 48 47 10 39 hhcurveto
          126 41 -104 -116 5 hvcurveto
          -446 hlineto
          -1 -12 0 -7 -9 vvcurveto
          -212 99 -104 188 vhcurveto
          9 71 rmoveto
          -93 -50 70 144 -7 hvcurveto
          301 hlineto
          -95 -4 -25 -119 -122 hhcurveto
          endchar
        </CharString>
        <CharString name="uni019D">
          162 -168 76 661 45 hstem
          120 69 357 73 vstem
          461 614 rmoveto
          -55 callgsubr
          -383 vlineto
          -305 451 rlineto
          -206 33 callgsubr
          -565 vlineto
          -33 -20 -40 -53 vhcurveto
          -45 hlineto
          -6 -47 rlineto
          -20 34 36 -9 22 hhcurveto
          46 55 42 132 hvcurveto
          450 vlineto
          318 -466 112 10 rlineto
          546 -11 callsubr
          -243 vlineto
          endchar
        </CharString>
        <CharString name="uni01C4">
          598 0 69 477 68 75 callsubr
          1057 775 -88 callgsubr
          -748 -161 -41 callgsubr
        </CharString>
        <CharString name="uni01C5">
          54 callgsubr
          769 -81 callsubr
          -460 -118 -46 callgsubr
        </CharString>
        <CharString name="uni01C6">
          480 -10 81 -71 103 callsubr
          -57 67 85 callsubr
          174 135 hintmask 01101100
          681 -81 callsubr
          hintmask 10011100
          -334 -684 -72 callgsubr
          hintmask 01101100
          498 371 -90 callsubr
          hintmask 10011100
          -589 -348 -27 callsubr
          endchar
        </CharString>
        <CharString name="uni01C7">
          285 -150 69 81 11 callgsubr
          119 134 23 callgsubr
          86 -150 -66 callsubr
        </CharString>
        <CharString name="uni01C8">
          264 115 callsubr
          69 497 164 -161 45 hstemhm
          119 135 176 56 92 49 callgsubr
          hintmask 11101110
          747 646 rmoveto
          -11 callgsubr
          -261 -646 rmoveto
          162 -56 vlineto
          -26 -93 rlineto
          -150 hlineto
          hintmask 11011001
          477 vlineto
          85 23 rlineto
          45 -304 -8 callsubr
          vlineto
          hintmask 11101110
          451 hlineto
          hintmask 11011001
          37 463 -82 callsubr
        </CharString>
        <CharString name="uni01C9">
          95 115 callsubr
          102 callgsubr
          93 135 181 169 -146 135 hintmask 11110100
          228 70 -51 callsubr
          hintmask 11111000
          350 576 rmoveto
          -11 callgsubr
          hintmask 11110100
          -224 -183 -82 callsubr
        </CharString>
        <CharString name="uni01CA">
          513 -150 69 81 122 callgsubr
          hstem
          120 69 357 73 214 134 3 callsubr
          339 -764 -66 callsubr
        </CharString>
        <CharString name="uni01CB">
          492 115 callsubr
          45 521 164 -161 45 hstemhm
          120 69 357 73 187 49 callgsubr
          hintmask 11101110
          975 646 rmoveto
          -11 callgsubr
          hintmask 11011101
          -514 -32 -94 callsubr
          290 -151 -82 callsubr
        </CharString>
        <CharString name="uni01CC">
          403 115 callsubr
          71 callgsubr
          64 164 hstemhm
          103 135 165 135 179 49 callgsubr
          hintmask 11111110
          886 646 rmoveto
          -11 callgsubr
          -648 -184 -98 callsubr
          hintmask 11111101
          424 1 -82 callsubr
        </CharString>
        <CharString name="uni01CD">
          -7 callgsubr
          449 775 -88 callgsubr
          -307 -707 -89 callsubr
          hintmask 11100000
          -76 callsubr
          hintmask 11010000
          -87 callsubr
          endchar
        </CharString>
        <CharString name="uni01CE">
          -3 callgsubr
          142 -81 callsubr
          91 -306 -107 callgsubr
          endchar
        </CharString>
        <CharString name="uni01CF">
          -182 94 callgsubr
          135 vstem
          340 775 -88 callgsubr
          -85 -706 -88 callsubr
          endchar
        </CharString>
        <CharString name="uni01D0">
          30 callgsubr
          49 -81 callsubr
          267 -682 -91 callsubr
          endchar
        </CharString>
        <CharString name="uni01D1">
          -14 callgsubr
          484 775 -88 callgsubr
          -151 -147 rmoveto
          -106 callsubr
          endchar
        </CharString>
        <CharString name="uni01D2">
          -42 callgsubr
          156 -81 callsubr
          114 -230 -102 callsubr
        </CharString>
        <CharString name="uni01D3">
          -21 callsubr
          hstem
          91 135 63 22 186 75 vstem
          483 775 -88 callgsubr
          89 -539 -103 callgsubr
          endchar
        </CharString>
        <CharString name="uni01D4">
          2 callsubr
          194 -81 callsubr
          400 -720 rmoveto
          -14 callsubr
          419 -44 vlineto
          -169 -107 callsubr
          endchar
        </CharString>
        <CharString name="uni01D5">
          -21 callsubr
          33 145 65 79 88 callgsubr
          -87 152 -79 241 -81 150 -25 75 hintmask 0000000000000000
          hintmask 1101001010000000
          212 936 -33 callsubr
          hintmask 1111010100000000
          79 -217 -103 callsubr
          hintmask 1101100010000000
          50 -483 -103 callgsubr
          endchar
        </CharString>
        <CharString name="uni01D6">
          63 -10 82 453 145 65 79 103 callgsubr
          -111 152 -79 241 -81 150 -120 55 callsubr
          hintmask 00100100
          191 814 -33 callsubr
          hintmask 01101001
          79 -217 rmoveto
          41 -34 32 -40 vhcurveto
          hintmask 01110001
          58 callgsubr
          hintmask 01101001
          40 34 30 42 hvcurveto
          hintmask 01110010
          231 hmoveto
          41 -35 32 -38 -42 -35 -32 -41 -42 35 -30 42 38 35 30 42 vhcurveto
          hintmask 10110001
          93 -585 rmoveto
          -14 callsubr
          419 -44 vlineto
          -169 -107 callsubr
          endchar
        </CharString>
        <CharString name="uni01D7">
          17 callgsubr
          295 812 -86 callsubr
          hintmask 11101100
          -4 -93 -12 callgsubr
          50 -483 -103 callgsubr
          endchar
        </CharString>
        <CharString name="uni01D8">
          13 callgsubr
          274 690 -86 callsubr
          hintmask 11010100
          -4 -93 rmoveto
          41 -34 32 -40 vhcurveto
          hintmask 11100100
          58 callgsubr
          hintmask 11010100
          40 34 30 42 hvcurveto
          hintmask 11101000
          19 callgsubr
          93 -585 rmoveto
          -14 callsubr
          419 -44 vlineto
          -169 -107 callsubr
          endchar
        </CharString>
        <CharString name="uni01D9">
          17 callgsubr
          485 953 -88 callgsubr
          hintmask 11101100
          -194 -234 -12 callgsubr
          50 -483 -103 callgsubr
          endchar
        </CharString>
        <CharString name="uni01DA">
          13 callgsubr
          464 831 -88 callgsubr
          hintmask 11010100
          -194 -234 rmoveto
          41 -34 32 -40 vhcurveto
          hintmask 11100100
          58 callgsubr
          hintmask 11010100
          40 34 30 42 hvcurveto
          hintmask 11101000
          19 callgsubr
          93 -585 rmoveto
          -14 callsubr
          419 -44 vlineto
          -169 -107 callsubr
          endchar
        </CharString>
        <CharString name="uni01DB">
          17 callgsubr
          367 812 -60 callsubr
          hintmask 11101100
          -76 -93 -12 callgsubr
          50 -483 -103 callgsubr
          endchar
        </CharString>
        <CharString name="uni01DC">
          13 callgsubr
          346 690 -60 callsubr
          hintmask 11010100
          -76 -93 rmoveto
          41 -34 32 -40 vhcurveto
          hintmask 11100100
          58 callgsubr
          hintmask 11010100
          40 34 30 42 hvcurveto
          hintmask 11101000
          19 callgsubr
          93 -585 rmoveto
          -14 callsubr
          419 -44 vlineto
          -169 -107 callsubr
          endchar
        </CharString>
        <CharString name="uni01EA">
          106 -195 62 124 71 496 70 hstemhm
          30 145 202 85 26 121 callsubr
          hintmask 11111100
          505 -133 rmoveto
          -33 -10 20 27 41 26 61 42 35 hvcurveto
          hintmask 01110100
          72 59 31 95 106 vvcurveto
          173 -82 144 -218 -216 -87 -144 -173 -175 90 -145 213 vhcurveto
          hintmask 11111100
          36 32 4 8 29 hvcurveto
          -36 -41 -17 -41 -32 vvcurveto
          -40 26 -44 72 64 33 35 27 17 vhcurveto
          -23 22 rlineto
          -14 -20 -19 -8 -22 hhcurveto
          hintmask 01110100
          -168 195 -67 callsubr
          endchar
        </CharString>
        <CharString name="uni01EB">
          -13 -199 62 127 113 callsubr
          25 145 121 85 -2 121 callsubr
          hintmask 11111000
          419 -137 rmoveto
          -32 -11 20 25 38 24 63 34 30 hvcurveto
          hintmask 11110100
          59 46 26 76 83 vvcurveto
          143 -68 115 -181 -177 -68 -115 -143 -138 70 -116 175 vhcurveto
          hintmask 11111000
          27 24 3 5 22 hvcurveto
          -36 -41 -16 -40 -30 -5 callgsubr
          hintmask 11110100
          -145 195 -55 callsubr
          endchar
        </CharString>
        <CharString name="uni01F1">
          598 0 69 477 68 75 callsubr
          309 614 -41 callgsubr
        </CharString>
        <CharString name="uni01F2">
          54 callgsubr
          309 614 -46 callgsubr
        </CharString>
        <CharString name="uni01F3">
          480 -10 81 -71 103 callsubr
          -57 67 85 callsubr
          174 55 callsubr
          hintmask 10011100
          347 48 -72 callgsubr
          hintmask 01101100
          498 371 -90 callsubr
          hintmask 10011100
          -589 -348 -27 callsubr
          endchar
        </CharString>
        <CharString name="uni01F4">
          -3 callsubr
          272 634 -86 callsubr
          178 -89 -99 callsubr
          endchar
        </CharString>
        <CharString name="uni01F5">
          -27 callgsubr
          177 -80 callgsubr
          149 -455 -96 callgsubr
        </CharString>
        <CharString name="uni0200">
          -7 callgsubr
          217 631 -91 callgsubr
          -236 -563 -89 callsubr
          hintmask 11100000
          -76 callsubr
          hintmask 11010000
          -87 callsubr
          endchar
        </CharString>
        <CharString name="uni0201">
          -3 callgsubr
          190 552 -91 callgsubr
          -118 -126 -107 callgsubr
          endchar
        </CharString>
        <CharString name="uni0202">
          -20 callgsubr
          515 76 60 callgsubr
          -35 56 128 59 hintmask 11101100
          300 798 rmoveto
          -38 callsubr
          70 -16 65 -102 vhcurveto
          -158 -730 -89 callsubr
          hintmask 11110100
          -76 callsubr
          hintmask 11101100
          -87 callsubr
          endchar
        </CharString>
        <CharString name="uni0203">
          -20 callsubr
          143 76 114 callgsubr
          57 104 135 -110 57 hintmask 00000000
          hintmask 11101010
          264 -50 callsubr
          hintmask 11110100
          -31 -295 -107 callgsubr
          endchar
        </CharString>
        <CharString name="uni0204">
          -36 callsubr
          193 631 -91 callgsubr
          24 -235 -32 callgsubr
          hintmask 11111100
          -92 callgsubr
          hintmask 11111010
          -85 callsubr
          endchar
        </CharString>
        <CharString name="uni0205">
          -76 -10 -72 callsubr
          16 callgsubr
          173 552 -91 callgsubr
          -164 -332 -106 callgsubr
          endchar
        </CharString>
        <CharString name="uni0206">
          -39 callsubr
          108 76 -24 callsubr
          -104 56 128 59 -16 59 callsubr
          hintmask 0000000000000000
          hintmask 1111011001000000
          276 798 rmoveto
          -38 callsubr
          70 -16 65 -102 vhcurveto
          hintmask 1111100101000000
          102 -402 -32 callgsubr
          hintmask 1111100110000000
          -92 callgsubr
          hintmask 1111100101000000
          -85 callsubr
          endchar
        </CharString>
        <CharString name="uni0207">
          -76 -10 -72 callsubr
          143 71 callsubr
          247 -50 callsubr
          hintmask 11111001
          -77 -501 -106 callgsubr
          endchar
        </CharString>
        <CharString name="uni0208">
          -182 94 callgsubr
          135 vstem
          108 631 -91 callgsubr
          -14 -562 -88 callsubr
          endchar
        </CharString>
        <CharString name="uni0209">
          30 callgsubr
          97 552 -91 callgsubr
          58 -502 -91 callsubr
          endchar
        </CharString>
        <CharString name="uni020A">
          9 callsubr
          108 76 hstemhm
          66 56 -2 135 -5 59 121 callgsubr
          191 798 rmoveto
          -38 callsubr
          70 -16 65 -102 vhcurveto
          hintmask 11101000
          64 -729 -88 callsubr
          endchar
        </CharString>
        <CharString name="uni020B">
          87 callsubr
          595 76 hstemhm
          43 57 3 135 -9 57 hintmask 00000000
          hintmask 11101000
          171 -50 callsubr
          hintmask 11010000
          145 -671 -91 callsubr
          endchar
        </CharString>
        <CharString name="uni020C">
          -14 callgsubr
          252 631 -91 callgsubr
          -80 -3 rmoveto
          -106 callsubr
          endchar
        </CharString>
        <CharString name="uni020D">
          -42 callgsubr
          204 552 -91 callgsubr
          -95 -50 -102 callsubr
        </CharString>
        <CharString name="uni020E">
          -24 callgsubr
          94 76 hstem
          30 145 35 56 128 59 35 145 vstem
          335 798 rmoveto
          -38 callsubr
          70 -16 65 -102 vhcurveto
          -2 -170 rmoveto
          -106 callsubr
          endchar
        </CharString>
        <CharString name="uni020F">
          -13 -29 callgsubr
          143 72 callgsubr
          278 -50 callsubr
          hintmask 11110010
          -8 -219 -102 callsubr
        </CharString>
        <CharString name="uni0210">
          7 callsubr
          219 631 -91 callgsubr
          38 -631 rmoveto
          -84 callsubr
          endchar
        </CharString>
        <CharString name="uni0211">
          5 callgsubr
          145 552 -91 callgsubr
          -3 -135 -63 callgsubr
        </CharString>
        <CharString name="uni0212">
          41 0 51 callgsubr
          108 76 -24 callsubr
          -78 56 128 59 -14 136 hintmask 11111010
          302 798 rmoveto
          hintmask 11110110
          -38 callsubr
          hintmask 11111010
          70 -16 65 -102 vhcurveto
          116 -798 rmoveto
          185 45 hlineto
          -64 23 -80 182 -2 26 -58 19 rlinecurve
          hintmask 11111001
          84 26 59 51 93 vvcurveto
          87 -65 62 -159 vhcurveto
          -283 -84 callgsubr
          293 45 vlineto
          51 callsubr
          hintmask 11111010
          33 14 -14 -254 91 hvcurveto
          hintmask 11111001
          -122 323 rmoveto
          -41 223 hlineto
          4 11 18 3 19 hhcurveto
          61 42 -33 -72 -74 -39 -51 -71 hvcurveto
          endchar
        </CharString>
        <CharString name="uni0213">
          -131 0 50 275 180 -88 85 143 76 hstemhm
          91 57 -45 135 39 57 hintmask 11010110
          219 721 rmoveto
          hintmask 11011010
          -103 -25 -65 -70 hvcurveto
          57 -2 rlineto
          27 11 34 58 49 11 -34 -27 vhcurveto
          57 2 rlineto
          hintmask 11010110
          70 -13 65 -102 vhcurveto
          84 -304 rmoveto
          21 -92 rlineto
          73 hlineto
          19 179 rlineto
          1 -6 -15 0 -8 hhcurveto
          -46 -59 -20 -29 -44 hvcurveto
          hintmask 10110110
          46 -45 vlineto
          -168 2 callgsubr
          329 50 vlineto
          -116 20 rlineto
          331 vlineto
          hintmask 11010110
          68 callsubr
          endchar
        </CharString>
        <CharString name="uni0214">
          -13 callgsubr
          vstem
          251 631 -91 callgsubr
          160 -395 -103 callgsubr
          endchar
        </CharString>
        <CharString name="uni0215">
          2 callsubr
          242 552 -91 callgsubr
          191 -540 rmoveto
          -14 callsubr
          419 -44 vlineto
          -169 -107 callsubr
          endchar
        </CharString>
        <CharString name="uni0216">
          -21 callsubr
          108 76 88 callgsubr
          -17 56 147 40 45 75 hintmask 11110110
          334 798 rmoveto
          hintmask 11101110
          -38 callsubr
          hintmask 11110110
          70 -16 65 -102 vhcurveto
          238 -562 54 callsubr
          -30 callsubr
          vhcurveto
          281 vlineto
          hintmask 11101110
          -16 callgsubr
          vlineto
          hintmask 11110110
          43 callsubr
        </CharString>
        <CharString name="uni0217">
          63 -10 82 573 76 103 callgsubr
          -41 115 callgsubr
          -50 55 callsubr
          hintmask 11011000
          316 -50 callsubr
          hintmask 11100100
          278 -709 rmoveto
          -14 callsubr
          419 -44 vlineto
          -169 -107 callsubr
          endchar
        </CharString>
        <CharString name="uni021A">
          38 callgsubr
          7 614 -46 callsubr
          247 -850 -56 callgsubr
        </CharString>
        <CharString name="uni021B">
          -209 417.5 94 callsubr
          92 133 hintmask 10100000
          324 11 callsubr
          -151 -249 -56 callgsubr
        </CharString>
        <CharString name="uni0232">
          18 33 callsubr
          65 79 hstemhm
          167 125 -61 134 -7 50 121 callgsubr
          167 758 -33 callsubr
          191 -190 rmoveto
          -53 callsubr
          hintmask 11101000
          -57 callsubr
          142 289 71 25 rlineto
          44 vlineto
          hintmask 11100100
          -220 hlineto
          hintmask 11110100
          -46 vlineto
          endchar
        </CharString>
        <CharString name="uni0232.loclGUA">
          8 callsubr
          65 79 hstemhm
          81 135 5 80 84 77 8 127 hintmask 00000000
          hintmask 11110111
          221 758 -33 callsubr
          -22 -839 rmoveto
          -16 87 rlineto
          -56 hlineto
          -15 -143 rlineto
          -20 54 65 -11 73 hhcurveto
          hintmask 11111001
          208 85 111 131 hvcurveto
          472 -11 callsubr
          vlineto
          hintmask 11111011
          -297 -45 hlineto
          hintmask 11111001
          -52 callgsubr
          -354 vlineto
          -36 -22 -36 -34 -67 hhcurveto
          -114 -15 93 117 hvcurveto
          214 vlineto
          hintmask 11110101
          -16 callgsubr
          vlineto
          hintmask 11111001
          -305 33 callgsubr
          -214 vlineto
          -174 38 -107 201 65 52 20 36 34 vhcurveto
          -38 vlineto
          -115 -43 -50 -132 vhcurveto
          hintmask 11110111
          -18 -51 5 10 -28 hvcurveto
          endchar
        </CharString>
        <CharString name="uni0233">
          -57 -168 75 533 52 -40 40 114 79 hstemhm
          -13 526 -384 241 -74 217 hintmask 00000000
          hintmask 10110100
          129 685 -33 callsubr
          98 -193 -75 callsubr
          hintmask 11010010
          -39 callgsubr
          hintmask 10111000
          -96 251 47 27 rlineto
          hintmask 10110100
          40 vlineto
          endchar
        </CharString>
        <CharString name="uni0233.loclGUA">
          38 -168 72 131 85 486 79 hstem
          99 -10 callsubr
          vstem
          177 685 -33 callsubr
          213 -588 -98 callgsubr
        </CharString>
        <CharString name="uni0237">
          109 callsubr
          32 463 -82 callsubr
        </CharString>
        <CharString name="uni0259">
          -76 -10 69 129.5 59.5 179 75 hstem
          25 136 150 145 vstem
          311 272 rmoveto
          -24 -282 vlineto
          -3 -17 -1 -37 -12 vvcurveto
          -132 61 -60 140 122 108 61 197 133 -50 121 -190 -85 -61 -25 -30 -40 vhcurveto
          8 -44 rlineto
          14 50 50 10 38 hhcurveto
          86 49 -32 -123 hvcurveto
          -150 -110 rmoveto
          21 vlineto
          148 11 rlineto
          -84 -3 -14 -51 -71 hhcurveto
          -53 -7 46 57 hvcurveto
          endchar
        </CharString>
        <CharString name="uni0272">
          73 115 callsubr
          -13 callsubr
          538 70 rmoveto
          328 vlineto
          77 -59 27 -65 -63 -87 -28 -12 -26 vhcurveto
          40 -70 callsubr
          -37 rlineto
          -50 vlineto
          78 -10 rlineto
          -424 vlineto
          -33 -20 -40 -53 vhcurveto
          -45 hlineto
          -6 -47 rlineto
          -20 42 45 -9 23 hhcurveto
          71 78 54 170 hvcurveto
          353 vlineto
          7 25 27 5 44 hhcurveto
          55 14 -8 -49 hvcurveto
          -294 vlineto
          70 callsubr
          274 45 vlineto
          -79 25 rlineto
          endchar
        </CharString>
        <CharString name="uni02B0">
          -81 279 42 269 65 hstem
          69 115 109 115 vstem
          408 340 rmoveto
          91 callgsubr
          201 -38 vlineto
          -130 112 callgsubr
          -414 20 callgsubr
          endchar
        </CharString>
        <CharString name="uni02BC">
          -302 529 227 hstem
          71 113 vstem
          71 1 callsubr
          endchar
        </CharString>
        <CharString name="uni02C9">
          -302 606 79 hstem
          7 241 vstem
          7 685 -33 callsubr
          endchar
        </CharString>
        <CharString name="uni02E1">
          -305 279 40 hstem
          69 115 vstem
          236 319 rmoveto
          -52 21 rlineto
          487 -38 vlineto
          -130 112 callgsubr
          -414 vlineto
          -53 -21 rlineto
          -40 220 40 vlineto
          endchar
        </CharString>
        <CharString name="uni02E2">
          -207 270 59 269 57 hstem
          33 94 87 98 vstem
          177 598 rmoveto
          24 11 -3 -5 8 hvcurveto
          16 -58 rlineto
          49 hlineto
          9 104 rlineto
          13 -32 -45 6 -39 hhcurveto
          -107 -38 -48 -65 -66 25 -27 42 -16 hvcurveto
          83 -32 rlineto
          23 -8 8 -9 -17 vvcurveto
          -37 -23 -1 -35 -23 -17 4 4 -13 vhcurveto
          -17 62 rlineto
          -44 hlineto
          -10 -108 rlineto
          -13 34 52 -8 38 hhcurveto
          101 55 56 63 63 -31 23 -45 18 hvcurveto
          -80 31 rlineto
          -22 7 -7 13 15 vvcurveto
          26 15 13 35 vhcurveto
          endchar
        </CharString>
        <CharString name="uni0302">
          -557 640 160 hstem
          -280 304 vstem
          1 640 -101 callsubr
          endchar
        </CharString>
</ttFont>
